<?xml version="1.0" standalone="no"?>
<!DOCTYPE svg PUBLIC "-//W3C//DTD SVG 20010904//EN"
 "http://www.w3.org/TR/2001/REC-SVG-20010904/DTD/svg10.dtd">
<svg version="1.0" xmlns="http://www.w3.org/2000/svg"
 width="1024.000000pt" height="1024.000000pt" viewBox="0 0 1024.000000 1024.000000"
 preserveAspectRatio="xMidYMid meet">

<g transform="translate(0.000000,1024.000000) scale(0.100000,-0.100000)"
fill="#000000" stroke="none">
<path d="M3940 9550 c-207 -10 -396 -33 -483 -60 -34 -11 -96 -42 -138 -70
-127 -82 -214 -193 -304 -384 -51 -108 -54 -112 -102 -134 -58 -26 -224 -118
-338 -187 -131 -79 -288 -190 -453 -322 -86 -67 -160 -123 -164 -123 -5 0 -23
33 -42 73 -53 117 -226 380 -268 408 -5 3 -11 20 -13 38 -5 42 -23 66 -86 113
-66 49 -105 69 -189 98 -192 65 -601 11 -771 -102 -132 -88 -235 -239 -307
-448 -64 -187 -77 -256 -76 -415 0 -169 24 -271 85 -365 64 -100 153 -145 272
-138 118 6 223 70 318 195 54 73 129 219 149 293 7 25 14 51 17 59 2 10 21 -3
59 -40 39 -38 72 -86 111 -161 31 -59 78 -135 105 -168 l49 -61 -65 -98 c-227
-345 -428 -737 -550 -1073 -198 -547 -298 -1235 -256 -1764 22 -279 60 -500
131 -766 94 -353 191 -604 385 -988 165 -328 305 -531 590 -855 455 -517 856
-818 1424 -1067 563 -247 1040 -366 1650 -409 388 -28 866 -4 1123 56 61 14
77 14 162 0 108 -17 203 -19 290 -5 97 15 348 39 530 50 194 12 241 21 294 54
42 27 89 78 101 112 7 16 20 23 57 28 26 4 127 30 223 58 96 27 213 61 260 73
109 30 230 73 383 136 118 49 200 81 447 174 63 24 145 55 182 69 275 105 573
314 666 467 34 56 72 166 72 208 0 61 -52 152 -126 220 -83 76 -162 109 -389
166 -331 83 -546 171 -651 268 -72 65 -97 115 -98 192 l-1 60 400 -3 c493 -4
726 7 807 37 110 42 199 134 239 248 21 58 21 65 24 2718 2 1484 0 2688 -5
2724 -24 171 -150 298 -338 336 -37 8 -121 19 -188 25 -131 13 -183 8 -484
-45 -80 -14 -386 -66 -680 -116 -294 -49 -585 -98 -646 -109 -62 -11 -151 -24
-198 -30 -81 -10 -89 -9 -115 10 -81 57 -532 254 -756 329 -380 128 -674 178
-1103 188 l-264 6 -52 52 c-62 63 -166 115 -286 146 -100 25 -334 32 -620 19z
m430 -110 c132 -12 206 -31 295 -75 80 -39 91 -47 128 -96 19 -25 27 -48 27
-77 0 -51 -11 -58 -34 -24 -10 15 -41 45 -68 66 -169 132 -493 167 -943 101
-186 -27 -273 -49 -351 -88 -80 -40 -106 -68 -175 -184 -97 -164 -144 -281
-189 -478 -19 -85 -23 -93 -70 -137 -28 -25 -50 -41 -50 -36 0 27 84 349 112
426 79 225 208 419 324 488 103 61 273 97 534 113 197 12 341 12 460 1z m1090
-275 c448 -47 785 -145 1265 -371 l80 -37 -85 -18 c-152 -32 -1338 -224 -1565
-254 -91 -12 -558 -86 -675 -107 -63 -11 -143 -33 -177 -49 -78 -35 -162 -112
-195 -181 -49 -102 -52 -133 -44 -524 l7 -362 -38 9 c-21 5 -66 8 -101 7 -54
-1 -65 2 -78 20 -20 29 -166 125 -244 160 -36 16 -96 39 -135 52 -38 12 -73
25 -78 27 -4 3 13 27 37 54 51 57 66 106 45 146 -22 41 -23 38 89 418 32 108
72 216 110 295 33 69 66 143 75 165 8 22 43 98 78 168 54 113 64 128 83 124
12 -3 59 -17 106 -32 228 -69 460 -74 647 -14 161 53 293 187 293 300 l0 32
178 -6 c97 -4 242 -14 322 -22z m3638 -200 c61 -28 103 -70 140 -140 27 -50
27 -51 30 -296 3 -230 2 -247 -15 -253 -21 -9 -554 -79 -803 -106 -96 -10
-222 -26 -280 -34 -58 -9 -197 -27 -310 -41 -113 -14 -263 -35 -335 -46 -630
-95 -792 -117 -1325 -184 -113 -14 -308 -39 -435 -55 -126 -16 -275 -34 -330
-40 -55 -6 -170 -22 -255 -36 -85 -13 -247 -35 -360 -48 -113 -14 -279 -36
-370 -50 -91 -13 -187 -26 -215 -27 l-50 -3 -7 159 c-10 245 10 334 91 408 77
70 128 80 1096 223 132 19 256 39 275 44 19 5 91 16 160 25 68 9 159 23 201
31 42 8 182 30 310 49 129 19 297 46 374 60 77 14 250 43 385 65 135 22 477
79 760 126 283 46 533 87 555 90 22 3 110 18 195 34 225 42 379 67 425 69 24
0 61 -9 93 -24z m277 -12 c61 -30 99 -64 132 -122 41 -69 53 -139 53 -323 l0
-168 -89 0 -89 0 1 213 c2 239 -6 278 -77 378 -20 27 -36 51 -36 54 0 10 54
-7 105 -32z m-8104 -67 c31 -8 86 -29 123 -47 60 -29 75 -43 155 -143 230
-290 330 -488 464 -921 72 -231 87 -299 87 -389 -1 -55 -2 -59 -15 -42 -8 10
-44 111 -81 225 -171 527 -339 851 -567 1092 -133 142 -320 190 -534 139 -113
-27 -204 -72 -258 -128 -96 -100 -211 -321 -254 -486 -30 -113 -27 -318 5
-418 4 -13 2 -18 -5 -14 -16 10 -51 131 -62 216 -30 235 77 592 230 762 69 77
203 130 421 168 71 12 219 5 291 -14z m1604 -231 c-29 -100 -59 -270 -76 -425
-12 -115 -5 -402 13 -534 9 -64 8 -80 -3 -88 -17 -11 -158 -4 -222 13 -64 16
-161 8 -187 -16 -25 -23 -26 -55 0 -88 l20 -26 -57 -11 c-32 -6 -74 -16 -93
-21 -61 -16 -70 -13 -70 25 0 53 -30 196 -51 246 -10 25 -30 90 -44 145 -15
55 -39 131 -55 169 l-29 69 66 61 c159 147 437 352 601 446 40 22 102 61 139
85 37 25 68 43 70 41 2 -2 -8 -43 -22 -91z m6672 -440 c9 -3 11 -526 10 -2197
l-2 -2193 -87 -3 c-67 -2 -88 0 -88 10 -2 652 1 4382 4 4387 4 7 140 3 163 -4z
m-6143 -182 c-4 -16 -10 -32 -15 -37 -5 -5 -4 6 1 25 6 18 10 35 10 36 0 2 2
3 5 3 3 0 2 -12 -1 -27z m5561 -13 c0 -10 -12 -16 -32 -18 -34 -3 -36 -9 -45
-92 -2 -17 -10 -26 -25 -28 -22 -3 -23 0 -23 71 0 85 1 87 75 84 37 -1 50 -6
50 -17z m-321 -8 c13 -22 -7 -51 -38 -54 -30 -3 -31 -5 -36 -58 -4 -47 -8 -55
-25 -55 -18 0 -20 7 -20 74 l0 74 45 12 c58 16 68 17 74 7z m150 -8 c41 -40 3
-128 -61 -140 -28 -6 -34 -3 -52 27 -23 38 -27 91 -8 107 29 24 100 28 121 6z
m-306 -26 c-2 -16 -14 -26 -38 -34 -32 -10 -36 -16 -45 -62 -12 -61 -22 -73
-41 -48 -9 13 -12 32 -8 56 3 21 1 46 -5 58 -10 18 -7 20 42 26 29 4 59 11 67
16 24 15 32 12 28 -12z m-180 -20 c7 -7 12 -22 12 -35 0 -19 -8 -25 -45 -34
-34 -9 -45 -16 -43 -28 4 -17 28 -19 66 -7 16 5 22 3 22 -7 0 -20 -21 -36 -58
-43 -25 -5 -35 -1 -55 20 -46 50 -40 107 15 131 41 18 70 19 86 3z m-582 -24
c23 -16 23 -18 9 -34 -10 -11 -15 -31 -13 -52 3 -29 6 -33 31 -30 15 1 27 -2
27 -8 0 -17 -39 -50 -60 -50 -24 0 -36 21 -45 80 -3 25 -9 52 -11 61 -4 15 19
49 32 49 3 0 16 -7 30 -16z m364 -10 c0 -8 -4 -14 -9 -14 -20 0 -20 -34 1 -69
14 -25 19 -44 14 -57 -8 -19 -8 -19 -21 1 -43 63 -41 62 -58 28 -18 -33 -45
-49 -60 -34 -6 6 -2 20 10 38 29 41 32 54 17 91 -11 28 -11 32 3 32 9 0 25 -8
35 -17 18 -16 19 -15 34 5 16 23 34 21 34 -4z m-166 -46 c12 -61 -7 -93 -60
-103 -51 -9 -64 10 -60 84 3 53 5 56 32 63 64 14 78 7 88 -44z m-331 15 c3 -5
6 -35 8 -68 4 -56 2 -60 -18 -63 -23 -3 -25 0 -38 81 -5 34 -8 37 -22 25 -9
-7 -28 -40 -43 -73 -15 -33 -37 -69 -49 -79 l-22 -20 3 89 c3 76 6 90 21 93
11 2 17 -3 17 -15 0 -16 2 -16 18 3 9 12 24 24 32 27 23 8 88 8 93 0z m-233
-44 c0 -11 -4 -17 -10 -14 -14 9 -12 -7 4 -30 17 -25 6 -59 -24 -75 -31 -16
-84 -9 -88 13 -3 13 4 17 31 17 19 0 40 7 47 15 11 13 8 15 -18 15 -45 0 -62
10 -62 36 0 30 24 43 78 44 36 0 42 -3 42 -21z m1686 -44 c34 -23 67 -111 61
-163 -6 -58 -53 -126 -90 -130 -33 -4 -33 -1 -2 46 49 75 45 151 -10 204 -19
18 -35 38 -35 45 0 18 51 17 76 -2z m-86 -111 c0 -21 -5 -24 -35 -24 l-34 0
-3 -62 c-3 -57 -5 -63 -25 -66 -22 -3 -23 0 -23 66 0 39 -3 77 -6 86 -5 12 1
16 22 17 16 0 38 4 49 8 31 12 55 1 55 -25z m-179 -5 c24 -17 29 -27 29 -63 0
-51 -29 -84 -82 -92 -32 -6 -37 -3 -57 29 -11 19 -21 44 -21 55 0 30 -14 35
-55 18 -34 -15 -35 -16 -35 -70 0 -49 -3 -56 -19 -56 -25 0 -35 44 -26 113 8
58 17 68 56 60 15 -3 30 0 33 6 12 19 35 12 42 -14 8 -32 10 -31 41 5 29 35
54 38 94 9z m-286 -34 c0 -13 -10 -21 -32 -27 -39 -10 -46 -20 -53 -78 -4 -37
-9 -46 -27 -48 -22 -3 -23 -1 -23 77 l0 81 38 0 c20 0 44 5 52 10 22 15 45 7
45 -15z m-1295 -10 c10 -12 8 -20 -9 -41 -27 -34 -43 -95 -36 -131 4 -15 18
-56 32 -90 l25 -62 -22 -31 c-35 -49 -42 -99 -24 -161 26 -92 27 -99 15 -99
-21 0 -69 61 -78 99 -12 49 0 111 36 177 22 41 26 56 16 62 -7 4 -22 23 -34
42 -30 50 -27 111 9 188 29 62 47 75 70 47z m505 -18 c4 -13 18 -28 33 -34
l27 -10 -27 -11 c-14 -6 -29 -20 -33 -31 -8 -25 10 -61 30 -61 23 0 18 -38 -6
-45 -33 -11 -64 26 -63 74 1 34 -2 40 -23 46 -24 6 -24 7 -9 24 9 10 16 27 16
38 0 24 8 33 31 33 11 0 21 -10 24 -23z m603 11 c7 -7 12 -22 12 -34 0 -20
-12 -28 -72 -48 -10 -3 -18 -13 -18 -22 0 -14 8 -16 45 -12 64 8 54 -25 -11
-38 -68 -13 -115 95 -64 146 23 23 88 28 108 8z m-1252 -9 c3 -6 -6 -24 -22
-40 -42 -44 -46 -120 -8 -187 30 -54 29 -71 -5 -53 -40 22 -71 82 -71 136 0
71 40 155 74 155 14 0 28 -5 32 -11z m1044 0 c0 -7 -10 -27 -21 -46 l-21 -34
21 -23 c20 -21 29 -66 14 -66 -4 0 -17 12 -29 28 l-22 27 -29 -27 c-28 -27
-63 -37 -63 -20 0 4 11 23 25 42 30 41 32 66 5 80 -11 6 -20 17 -20 25 0 22
34 18 55 -5 23 -26 29 -25 45 5 14 25 40 34 40 14z m-199 -25 c19 -23 24 -117
8 -131 -8 -6 -34 -14 -59 -18 -38 -6 -48 -3 -64 14 -26 29 -8 66 42 89 l37 16
-45 6 -45 5 25 18 c30 21 83 22 101 1z m-1179 -31 c34 -37 48 -66 48 -98 0
-48 -57 -125 -92 -125 -24 0 -23 10 8 51 32 43 29 103 -9 153 -15 18 -23 36
-20 40 14 13 41 5 65 -21z m608 -4 c8 -6 11 -12 5 -15 -34 -15 -40 -24 -29
-41 6 -10 20 -18 30 -18 14 0 20 -8 22 -33 2 -18 -2 -40 -9 -48 -22 -27 -109
-13 -109 17 0 4 17 9 38 11 44 4 48 18 8 29 -49 13 -61 54 -26 89 22 22 47 25
70 9z m250 -15 c6 -14 10 -48 10 -75 0 -42 -3 -49 -20 -49 -14 0 -20 7 -20 24
0 46 -13 86 -27 86 -14 0 -52 -76 -76 -151 -9 -30 -17 -39 -35 -39 -32 0 -39
27 -13 51 26 25 26 26 -4 91 -31 66 -31 78 -1 78 19 0 27 -8 37 -37 l12 -38 8
30 c11 39 34 55 81 55 32 0 40 -4 48 -26z m-4498 -36 c3 -20 14 -25 85 -40
198 -42 454 -145 533 -215 l43 -39 -35 -22 -35 -22 -84 41 c-102 50 -182 79
-221 79 -16 0 -46 9 -67 20 -100 51 -425 83 -437 43 -18 -60 -28 -68 -88 -71
-35 -2 -80 4 -112 14 -67 21 -147 15 -289 -22 -134 -35 -139 -35 -143 -2 -4
35 19 50 133 83 81 24 100 26 196 20 58 -3 113 -3 122 1 31 11 18 43 -34 84
l-51 40 44 0 c23 -1 70 -7 103 -15 94 -23 169 -18 250 15 85 35 83 35 87 8z
m2652 -24 c26 -26 24 -59 -9 -124 -12 -25 -26 -60 -30 -78 -7 -34 -21 -38 -38
-10 -7 11 -3 34 16 82 15 36 27 84 27 106 0 43 9 49 34 24z m-4245 -49 c37
-44 40 -51 25 -60 -73 -44 -69 -60 34 -138 128 -95 192 -148 192 -158 0 -5
-26 -42 -58 -82 -120 -148 -190 -276 -250 -453 -17 -50 -52 -140 -78 -200
-104 -243 -126 -327 -95 -365 l19 -24 38 20 c22 11 42 21 47 23 4 2 5 -20 1
-50 -10 -88 14 -629 31 -686 28 -92 66 -94 95 -6 l17 49 15 -36 c9 -20 19 -47
23 -60 4 -13 29 -64 56 -114 49 -91 243 -347 272 -358 9 -3 31 -4 49 -1 33 5
68 -17 156 -98 l24 -22 -59 -57 c-50 -49 -67 -58 -118 -69 -83 -18 -105 -33
-105 -73 1 -35 10 -49 58 -89 l32 -27 -43 -30 c-70 -48 -89 -49 -156 -7 -33
20 -66 36 -75 36 -23 0 -36 -33 -36 -93 0 -64 20 -127 56 -174 l25 -34 -23
-19 c-48 -39 -203 -111 -247 -114 -53 -4 -81 -32 -81 -81 0 -25 9 -41 40 -69
22 -19 51 -38 65 -42 32 -8 31 -12 -4 -54 -15 -19 -75 -105 -131 -190 -101
-152 -205 -285 -222 -285 -11 0 -135 280 -195 440 -96 258 -179 596 -220 904
-22 159 -25 743 -5 921 70 640 215 1090 550 1705 75 138 224 375 234 372 3 -1
25 -24 47 -52z m4090 18 c11 -23 9 -32 -18 -74 -17 -27 -33 -65 -37 -84 -6
-35 -24 -44 -52 -27 -15 10 -11 22 37 123 17 36 31 71 31 77 0 22 27 12 39
-15z m3489 -26 c19 -26 36 -64 39 -86 11 -78 -43 -171 -98 -171 l-30 0 36 46
c30 40 35 55 35 98 0 54 -14 83 -59 122 -29 25 -20 46 17 42 17 -2 37 -18 60
-51z m-3674 27 c11 -29 6 -55 -24 -114 -16 -33 -30 -66 -30 -75 0 -21 -23 -19
-44 4 -17 19 -16 23 31 110 26 50 51 91 54 91 4 0 10 -7 13 -16z m-184 -9 c0
-8 -10 -33 -21 -55 l-22 -41 23 -49 c35 -75 1 -100 -45 -33 -32 48 -32 94 0
150 26 43 65 60 65 28z m-221 -53 c41 -64 40 -101 -3 -146 -34 -36 -56 -46
-56 -24 0 6 8 20 18 31 25 28 23 104 -5 144 -28 38 -28 43 -4 43 12 0 31 -18
50 -48z m939 -57 c27 -34 23 -44 -8 -18 -28 23 -50 66 -50 95 1 19 3 17 18
-13 9 -19 27 -48 40 -64z m3027 20 c0 -14 -10 -23 -32 -29 -30 -9 -32 -13 -35
-60 -3 -44 -6 -51 -25 -54 -22 -3 -23 0 -23 55 0 32 -3 69 -7 82 -6 22 -4 23
26 19 17 -3 34 -1 37 4 3 5 18 8 32 6 19 -2 27 -9 27 -23z m-4559 1 c3 -8 -4
-28 -17 -45 -27 -36 -22 -94 11 -141 19 -26 20 -31 5 -36 -34 -14 -85 63 -85
128 0 23 10 46 31 71 33 40 46 45 55 23z m454 -3 c0 -14 -88 -35 -202 -47 -73
-8 -140 -16 -148 -18 -21 -4 -26 40 -6 48 47 18 356 33 356 17z m3798 -25 c3
-22 -1 -26 -36 -32 -45 -7 -52 -18 -52 -81 0 -24 -5 -47 -12 -51 -21 -13 -38
28 -38 92 0 90 4 96 55 88 28 -4 45 -2 50 6 11 18 30 6 33 -22z m140 16 c17
-12 22 -25 22 -59 0 -36 -5 -48 -31 -69 -38 -32 -81 -34 -109 -4 -66 71 38
188 118 132z m-290 -26 c-2 -16 -11 -24 -28 -26 -35 -5 -60 -30 -60 -61 0 -46
-11 -71 -31 -71 -17 0 -19 8 -19 85 0 84 0 85 23 80 12 -3 34 -2 47 4 14 5 35
10 48 10 19 1 23 -4 20 -21z m-1448 -7 c0 -6 -11 -31 -25 -57 -33 -61 -33
-122 -1 -177 31 -54 31 -100 0 -152 -32 -56 -32 -117 1 -170 31 -50 32 -67 3
-63 -13 2 -35 22 -53 46 -42 60 -42 135 0 207 16 28 33 53 38 56 5 4 -8 30
-29 59 -32 44 -37 59 -36 101 1 68 47 159 79 159 13 0 23 -4 23 -9z m655 -21
c18 -35 36 -37 109 -15 28 8 58 13 67 10 21 -7 39 -55 39 -106 0 -43 -12 -53
-76 -63 -34 -5 -44 -2 -60 15 -17 18 -17 23 -4 47 9 15 30 34 47 42 49 23 40
33 -27 28 -60 -4 -100 -26 -100 -55 0 -8 12 -25 26 -38 31 -29 26 -55 -10 -55
-34 0 -60 40 -52 80 5 26 2 32 -20 40 -25 10 -25 11 -10 35 9 13 16 33 16 45
0 32 37 25 55 -10z m603 18 c7 -7 12 -27 12 -44 0 -31 -2 -33 -45 -40 -28 -4
-45 -11 -45 -20 0 -15 15 -18 68 -15 36 3 43 -13 13 -29 -46 -24 -93 -11 -122
36 -18 30 -20 39 -9 65 7 16 22 36 34 44 25 18 77 20 94 3z m-293 -28 l22 -20
18 20 c10 11 22 20 27 20 14 0 9 -37 -7 -50 -20 -17 -19 -33 5 -55 19 -17 28
-65 13 -65 -4 0 -19 12 -34 26 l-26 25 -21 -25 c-12 -17 -30 -26 -47 -26 l-27
0 31 39 c36 45 39 76 11 93 -11 7 -20 18 -20 25 0 20 31 15 55 -7z m-3155 -19
c0 -22 -12 -25 -195 -41 -150 -14 -175 -13 -175 4 0 8 8 17 18 20 17 5 195 23
282 29 25 2 51 4 58 5 6 1 12 -7 12 -17z m1884 -49 c23 -32 27 -47 22 -74 -8
-42 -61 -108 -87 -108 -26 0 -24 16 6 52 14 16 25 41 25 54 0 27 -23 78 -48
107 -14 16 -14 19 -2 27 20 12 48 -7 84 -58z m-3505 23 c53 -26 68 -49 49 -72
-27 -33 -147 7 -148 49 0 18 25 48 41 48 5 0 31 -11 58 -25z m4326 11 c27 -20
35 -140 10 -150 -27 -10 -35 2 -35 53 0 62 -24 88 -40 45 -64 -174 -69 -181
-115 -170 -32 8 -32 23 -1 38 36 16 37 29 10 88 -13 28 -24 63 -24 76 0 37 29
29 46 -11 16 -39 34 -38 34 0 0 37 77 59 115 31z m-230 -21 c0 -15 -6 -19 -22
-17 -13 2 -23 0 -23 -4 0 -9 53 -58 60 -56 3 2 6 -8 8 -22 4 -31 -30 -56 -75
-56 -26 0 -33 4 -33 20 0 15 7 20 24 20 31 0 43 18 19 27 -76 27 -67 119 11
111 23 -2 31 -8 31 -23z m-1385 -35 c0 -6 -9 -28 -20 -50 -26 -51 -25 -70 5
-114 14 -20 25 -41 25 -46 0 -22 -35 -8 -71 29 -55 54 -52 98 9 164 26 27 52
36 52 17z m530 -25 c0 -7 -10 -15 -22 -19 -31 -8 -134 -7 -183 3 l-40 7 34 8
c47 11 172 23 194 18 9 -3 17 -10 17 -17z m-1120 -35 c-12 -37 -11 -42 13 -79
36 -54 42 -84 22 -101 -20 -16 -32 -4 -79 84 -35 64 -31 95 16 124 18 12 34
19 37 16 2 -2 -2 -22 -9 -44z m160 20 c0 -10 17 -49 37 -86 l36 -67 -27 -24
c-35 -30 -46 -29 -46 5 0 15 -13 49 -30 75 -32 50 -38 85 -18 105 19 19 48 15
48 -8z m3549 -47 c41 -49 55 -102 42 -150 -11 -38 -75 -113 -97 -113 -26 0
-25 23 2 51 23 24 29 40 32 93 4 63 4 65 -37 109 -46 50 -48 54 -23 60 25 5
46 -8 81 -50z m-5053 36 c167 -31 299 -168 335 -348 21 -110 -22 -265 -100
-354 -31 -35 -116 -97 -133 -97 -4 0 -8 10 -8 23 0 73 -110 211 -205 257 -64
32 -192 40 -259 17 -56 -19 -57 -18 -63 119 -5 97 -4 103 25 165 42 88 93 144
163 180 96 48 147 56 245 38z m1178 -81 c13 -36 5 -42 -37 -30 -34 10 -559
-19 -608 -33 -10 -3 -28 -8 -40 -11 -18 -5 -20 -2 -17 22 4 36 21 40 217 54
504 35 472 35 485 -2z m1264 15 c-3 -14 -14 -18 -52 -18 -54 0 -76 21 -29 28
67 10 85 8 81 -10z m2486 -29 c31 -12 19 -43 -19 -50 -34 -6 -35 -8 -35 -49 0
-56 -8 -75 -31 -75 -17 0 -19 8 -19 84 l0 85 34 -6 c19 -3 36 -1 40 6 8 13 9
13 30 5z m-151 -42 c29 -26 23 -88 -13 -124 -26 -25 -36 -29 -63 -24 -67 13
-89 91 -39 138 44 41 76 44 115 10z m-148 6 c4 -3 4 -16 0 -27 -4 -15 -15 -21
-34 -21 -39 0 -51 -17 -51 -77 0 -45 -3 -53 -19 -53 -14 0 -20 10 -25 38 -9
56 -7 127 4 138 10 10 115 13 125 2z m-1445 -13 c10 -12 7 -20 -13 -45 -37
-44 -43 -102 -18 -178 25 -73 25 -72 6 -72 -27 0 -75 89 -75 137 0 41 30 134
52 160 14 17 33 16 48 -2z m1295 -9 c0 -14 -11 -22 -40 -30 -39 -11 -40 -12
-45 -66 -4 -48 -8 -55 -27 -58 -22 -3 -23 -1 -23 83 0 78 2 86 18 81 9 -3 31
-2 47 3 44 14 70 9 70 -13z m-3292 -26 c-4 -5 -98 -13 -208 -19 -110 -6 -249
-16 -310 -22 -137 -13 -189 -10 -193 13 -3 13 7 18 50 22 92 10 393 26 510 27
62 0 122 4 133 8 21 9 35 -13 18 -29z m2493 32 c6 -4 17 -18 23 -30 11 -21 18
-23 54 -18 134 21 126 22 142 -18 8 -19 15 -56 15 -81 0 -37 -3 -45 -19 -45
-10 0 -39 -3 -64 -6 -43 -6 -47 -5 -58 19 -10 22 -9 31 6 53 14 21 22 25 46
20 30 -6 38 4 17 21 -23 18 -70 21 -104 7 -29 -12 -34 -19 -34 -48 0 -26 5
-36 21 -41 27 -9 21 -39 -9 -43 -37 -5 -52 15 -52 69 0 27 -4 50 -10 50 -5 1
-14 3 -20 4 -5 1 -15 3 -21 4 -7 0 0 12 15 26 14 13 26 33 26 45 0 21 8 25 26
12z m608 -8 c21 -20 21 -70 0 -78 -9 -3 -29 -6 -46 -6 -23 0 -29 -4 -26 -17 3
-15 13 -18 51 -16 52 3 60 -8 22 -33 -18 -12 -37 -15 -63 -11 -60 10 -86 65
-58 123 24 50 88 71 120 38z m-1595 -36 c69 -74 75 -134 20 -201 -47 -57 -90
-45 -47 14 34 45 30 105 -10 160 -24 32 -29 45 -19 51 19 12 24 10 56 -24z
m1308 10 l23 -22 21 22 c20 22 39 22 39 0 0 -7 -10 -22 -22 -35 l-21 -23 28
-40 c22 -32 26 -43 16 -53 -10 -9 -18 -6 -38 18 l-26 29 -23 -27 c-13 -15 -32
-27 -44 -27 -26 0 -25 4 5 44 30 40 31 60 5 93 -33 43 -4 60 37 21z m-687 -43
c16 -19 3 -37 -21 -30 -27 9 -24 -7 7 -36 42 -39 47 -56 24 -79 -25 -25 -100
-29 -100 -5 0 9 12 18 30 22 36 7 38 16 7 30 -12 6 -29 23 -37 38 -14 26 -13
28 13 51 32 27 59 31 77 9z m258 6 c7 -4 16 -33 19 -64 6 -61 -5 -87 -37 -87
-15 0 -17 6 -13 39 6 45 -3 91 -17 91 -13 0 -68 -96 -80 -141 -14 -52 -43 -75
-75 -61 -33 15 -32 31 5 45 36 14 36 18 5 85 -31 66 -32 92 -5 92 14 0 22 -11
31 -42 l12 -43 18 40 c13 29 26 42 46 46 42 10 76 10 91 0z m-4597 -41 c171
-53 327 -233 360 -413 41 -226 -150 -498 -395 -563 -140 -37 -318 10 -438 115
-53 47 -119 146 -142 214 -21 63 -21 216 0 288 41 139 146 274 254 329 102 52
251 65 361 30z m2722 -6 c-1 -10 -5 -34 -9 -51 -5 -28 -1 -39 25 -69 38 -43
37 -62 -7 -87 l-32 -19 0 36 c0 20 -9 54 -20 76 -25 49 -25 67 0 108 22 35 47
38 43 6z m-153 -3 c0 -6 -9 -26 -21 -45 -19 -32 -19 -37 -5 -64 9 -17 23 -38
32 -47 14 -14 15 -20 4 -41 -8 -13 -18 -24 -24 -24 -6 1 -28 27 -49 60 -36 55
-38 61 -27 94 6 20 23 45 37 56 27 21 53 26 53 11z m-170 -12 c0 -6 -11 -24
-25 -41 -32 -38 -31 -50 5 -91 33 -38 38 -68 15 -87 -16 -13 -35 -6 -35 14 0
7 -13 30 -30 52 -37 49 -37 71 0 122 28 39 70 58 70 31z m1190 -8 c0 -31 -24
-42 -77 -36 -26 3 -111 2 -188 -3 -77 -4 -141 -8 -142 -7 -2 1 -4 12 -5 26 -3
24 -1 24 87 30 50 3 143 6 208 7 108 2 117 1 117 -17z m957 -38 c-3 -10 -5 -2
-5 17 0 19 2 27 5 18 2 -10 2 -26 0 -35z m-2547 -7 c0 -7 -7 -19 -15 -26 -24
-20 -18 -56 15 -83 33 -28 39 -61 14 -71 -9 -4 -18 -5 -18 -4 -1 2 -21 29 -44
60 -23 31 -42 61 -42 67 0 11 67 71 80 71 6 0 10 -6 10 -14z m1104 8 c10 -4
16 -18 16 -35 l0 -29 -135 0 c-127 0 -135 1 -135 19 0 42 25 51 135 51 57 0
110 -3 119 -6z m2975 -40 c44 -50 56 -90 48 -160 -6 -56 -52 -118 -91 -122
-33 -4 -33 1 1 44 28 37 41 110 29 159 -4 14 -24 45 -46 69 -41 45 -42 56 -4
56 14 0 37 -17 63 -46z m-4264 14 c-17 -56 -17 -79 4 -119 12 -23 20 -44 17
-46 -12 -12 -44 11 -59 42 -23 48 -21 87 4 119 25 32 44 34 34 4z m405 -6 c0
-31 -81 -62 -105 -42 -20 17 -19 38 3 43 31 8 102 7 102 -1z m-550 -41 c0 -16
-12 -20 -76 -30 -82 -12 -94 -10 -94 19 0 15 9 20 48 23 115 9 122 8 122 -12z
m1675 10 c9 -16 -28 -30 -99 -37 l-66 -7 0 27 c0 26 0 26 79 26 44 0 82 -4 86
-9z m-1140 -53 c37 -17 31 -26 -21 -30 -59 -4 -75 6 -38 26 35 19 28 18 59 4z
m3770 -8 c10 -16 -7 -36 -38 -46 -30 -8 -32 -12 -35 -60 -2 -41 -7 -53 -22
-57 -10 -3 -21 -2 -24 1 -11 10 -6 148 5 159 12 12 107 15 114 3z m-1749 -22
c3 -5 -10 -27 -30 -48 -43 -48 -47 -90 -15 -175 11 -31 18 -62 15 -70 -3 -8 2
-18 11 -23 13 -8 12 -14 -12 -50 -39 -59 -42 -106 -12 -180 l25 -62 -24 0
c-18 0 -29 13 -55 65 -37 75 -35 97 12 188 l30 59 -27 41 c-42 62 -45 137 -9
208 15 30 32 57 37 60 12 8 46 0 54 -13z m1424 -6 c0 -25 -5 -30 -37 -38 -38
-9 -38 -9 -41 -66 -3 -54 -5 -58 -27 -58 -25 0 -25 1 -25 85 l0 85 28 1 c15 0
36 4 47 9 39 17 55 12 55 -18z m149 4 c42 -44 27 -123 -27 -145 -41 -17 -79 0
-97 44 -21 49 -19 63 16 96 39 36 77 38 108 5z m-1742 -2 c3 -9 -5 -29 -18
-47 -36 -49 -38 -124 -5 -187 32 -60 32 -62 4 -58 -13 2 -35 22 -53 46 -42 61
-40 125 5 205 32 57 55 71 67 41z m664 -30 c11 -21 23 -29 42 -29 36 1 34 -8
-8 -28 -35 -16 -42 -36 -29 -71 3 -9 17 -16 31 -16 18 0 24 -5 21 -17 -2 -13
-14 -19 -39 -21 -48 -4 -64 17 -62 80 1 40 -2 48 -17 48 -28 0 -33 17 -10 30
11 6 20 19 20 29 0 41 26 39 51 -5z m789 29 c-1 -18 -18 -33 -53 -48 -35 -15
-37 -17 -37 -63 0 -26 -5 -54 -10 -62 -8 -13 -11 -13 -24 0 -10 10 -16 40 -17
90 l-2 75 31 1 c17 0 35 3 38 7 10 9 74 9 74 0z m-195 -19 c10 -10 15 -29 13
-48 -2 -25 -8 -32 -28 -34 -81 -9 -91 -32 -14 -32 48 0 61 -20 25 -40 -59 -31
-131 9 -131 74 0 50 9 66 44 82 42 18 71 17 91 -2z m-3642 -5 c-14 -14 -136
-24 -160 -13 -13 6 -5 10 32 14 89 12 140 11 128 -1z m3348 -11 c29 -22 31
-22 43 -5 13 17 46 24 46 9 0 -5 -9 -17 -20 -27 -26 -24 -25 -41 5 -77 29 -34
31 -46 9 -55 -10 -4 -24 4 -38 22 l-23 28 -23 -31 c-24 -32 -60 -44 -60 -19 1
6 14 28 30 47 17 19 30 38 30 43 0 5 -11 23 -25 39 -14 16 -23 34 -19 39 8 13
11 12 45 -13z m-1331 2 c26 -14 80 -99 80 -127 0 -46 -58 -123 -92 -123 -24 0
-23 14 7 58 33 49 32 89 -5 140 -41 58 -38 78 10 52z m1224 -22 c17 -28 29
-108 20 -132 -4 -9 -12 -15 -20 -12 -7 3 -28 1 -45 -4 -28 -8 -37 -6 -56 12
-13 12 -23 28 -23 36 0 24 31 52 57 52 14 0 23 6 23 15 0 11 -11 15 -36 15
-66 0 -24 34 48 39 10 0 24 -9 32 -21z m-1468 -6 c31 -25 44 -55 44 -102 0
-53 -24 -98 -56 -106 -36 -9 -39 0 -14 41 27 44 23 102 -9 146 -12 16 -21 31
-21 34 0 11 36 4 56 -13z m894 -8 c11 -13 10 -16 -8 -21 -29 -7 -28 -14 8 -48
36 -34 38 -54 8 -83 -35 -32 -74 -38 -87 -14 -15 29 -15 30 21 34 43 4 45 21
6 39 -44 19 -50 58 -12 88 32 25 47 26 64 5z m255 0 c12 -12 15 -32 13 -83 -3
-59 -5 -66 -25 -69 -20 -3 -22 1 -25 60 -2 35 -7 63 -13 63 -5 0 -31 -43 -57
-95 -25 -52 -53 -96 -62 -98 -18 -4 -56 15 -56 27 0 5 14 14 30 20 36 12 37
23 5 83 -31 58 -33 98 -6 98 14 0 22 -12 31 -47 l12 -48 19 37 c31 60 99 86
134 52z m-2031 -30 c3 -8 -1 -28 -9 -44 -20 -38 -19 -58 5 -105 25 -50 25 -62
-1 -76 -24 -12 -26 -11 -59 53 -32 59 -25 119 19 166 26 26 37 28 45 6z m206
-27 c0 -24 -48 -102 -57 -93 -4 4 22 98 34 119 8 13 23 -4 23 -26z m144 -27
l-17 -51 32 -46 c20 -28 30 -52 26 -62 -10 -24 -85 65 -85 101 0 33 16 77 37
101 24 26 26 15 7 -43z m-510 42 c3 -5 -6 -33 -20 -63 -27 -58 -27 -106 1
-129 21 -17 19 -40 -4 -40 -30 0 -81 65 -81 103 0 68 80 167 104 129z m930 -8
c9 -3 16 -15 16 -25 0 -21 -13 -25 -106 -34 -60 -6 -62 -5 -66 20 -6 28 2 32
77 38 22 2 45 4 52 5 6 1 18 -1 27 -4z m-2481 -15 c48 -13 112 -70 139 -122
27 -53 27 -139 0 -201 -12 -25 -25 -46 -30 -46 -5 0 -9 33 -8 74 1 69 -1 77
-30 112 -17 22 -55 52 -85 67 -47 25 -62 28 -114 24 -35 -3 -83 -16 -115 -31
-30 -14 -56 -21 -58 -16 -6 16 37 78 68 100 65 46 154 61 233 39z m1365 -16
c2 -16 -5 -26 -27 -38 -17 -8 -31 -18 -31 -21 0 -13 30 -61 49 -78 26 -24 26
-38 2 -60 -21 -19 -12 -28 -96 88 -14 19 -25 38 -25 42 0 4 21 27 47 51 49 46
76 52 81 16z m871 3 c7 -8 11 -36 9 -63 -3 -40 -6 -48 -23 -48 -16 0 -22 10
-29 47 -7 35 -6 51 4 63 16 19 24 19 39 1z m2973 -83 c54 -58 76 -132 58 -190
-23 -72 -89 -138 -113 -114 -8 8 -5 17 10 33 31 33 44 74 45 141 1 55 -1 60
-41 101 -23 23 -38 45 -35 49 16 15 52 5 76 -20z m-4070 6 c37 -20 0 -29 -122
-29 -63 -1 -164 -5 -225 -9 -94 -7 -112 -6 -122 7 -7 9 -10 18 -8 21 5 4 187
13 398 19 32 1 68 -3 79 -9z m1335 -5 c9 -24 -7 -32 -79 -40 -57 -6 -69 -4
-74 10 -14 36 2 46 76 46 55 0 72 -3 77 -16z m-1858 -190 c75 -154 91 -194 75
-194 -4 0 -31 14 -60 31 -30 17 -54 26 -54 20 0 -5 13 -45 29 -89 16 -43 32
-99 36 -124 6 -39 4 -48 -11 -56 -16 -8 -163 -32 -196 -32 -5 0 1 12 12 28 27
36 43 178 34 292 -7 86 -19 126 -49 150 -14 11 -9 20 42 75 32 35 59 63 60 64
1 0 38 -74 82 -165z m576 117 c32 -13 -40 -29 -189 -41 -182 -14 -309 -13
-304 3 5 14 75 23 283 35 188 12 187 12 210 3z m2011 -15 c3 -8 -6 -34 -20
-59 -35 -59 -35 -123 0 -183 23 -39 24 -45 10 -50 -35 -13 -95 77 -96 142 0
32 52 142 73 156 18 11 27 10 33 -6z m1589 -21 c0 -25 -5 -30 -37 -38 -38 -9
-38 -10 -38 -58 0 -36 -4 -51 -16 -56 -25 -9 -34 16 -34 95 l0 72 33 1 c17 0
41 4 52 9 30 13 40 6 40 -25z m150 10 c53 -52 18 -155 -53 -155 -82 0 -107
129 -32 167 37 19 58 16 85 -12z m185 10 c0 -17 -30 -35 -59 -35 -19 0 -21 -6
-21 -60 0 -57 -1 -60 -25 -60 -25 0 -25 1 -25 78 0 43 3 82 7 85 3 4 33 7 65
7 44 0 58 -3 58 -15z m-1259 -34 c9 -25 17 -30 47 -33 l37 -3 -37 -19 c-53
-27 -60 -71 -15 -91 34 -15 28 -39 -12 -43 -45 -5 -55 8 -61 76 -5 56 -6 57
-35 57 -30 0 -30 0 -33 -65 -3 -62 -12 -80 -39 -80 -9 0 -13 20 -13 65 0 51
-3 65 -15 65 -15 0 -63 -86 -84 -152 -13 -40 -34 -48 -72 -27 -23 12 -17 27
17 39 31 12 30 28 -6 100 -16 33 -30 62 -30 65 0 3 11 5 26 5 19 0 28 -7 35
-30 14 -37 19 -37 44 3 20 31 23 32 90 33 97 1 95 1 106 34 14 38 37 38 50 1z
m789 20 c0 -12 -46 -48 -71 -56 -14 -5 -19 -16 -19 -45 0 -51 -8 -70 -31 -70
-17 0 -19 8 -19 63 0 34 -3 73 -7 86 -6 23 -4 23 30 17 21 -4 38 -2 42 4 8 13
75 13 75 1z m-190 -20 c14 -27 13 -71 -2 -76 -7 -2 -30 -6 -51 -10 -33 -5 -37
-8 -26 -21 9 -11 23 -13 51 -9 42 7 47 1 21 -27 -36 -40 -109 -12 -128 50 -9
32 11 87 38 100 37 18 85 14 97 -7z m-299 -17 c18 -16 29 -15 61 8 27 20 33 0
10 -32 -27 -35 -27 -38 -2 -70 22 -28 26 -60 8 -60 -6 0 -22 10 -35 22 l-24
22 -25 -27 c-24 -26 -44 -34 -57 -21 -4 4 7 22 23 41 35 39 39 77 10 95 -11 7
-20 18 -20 25 0 18 30 16 51 -3z m-109 -11 c18 -21 31 -93 22 -127 -4 -16 -12
-23 -27 -23 -12 1 -34 -2 -50 -6 -23 -6 -30 -3 -46 25 -24 38 -15 61 31 78
l33 13 -29 6 c-37 8 -43 25 -14 39 34 16 63 14 80 -5z m-1650 -38 c-2 -17 -5
-64 -6 -105 l-2 -75 -29 2 c-15 1 -33 7 -38 12 -15 15 6 141 28 175 24 36 51
30 47 -9z m1088 24 c0 -7 -8 -18 -17 -25 -17 -12 -16 -14 10 -41 33 -36 35
-68 3 -88 -32 -21 -90 -16 -94 8 -3 12 3 17 20 17 23 0 57 16 48 22 -3 2 -18
10 -35 18 -36 19 -42 42 -21 75 12 19 25 25 51 25 20 0 35 -5 35 -11z m-1757
-27 c16 -17 14 -22 -20 -70 -26 -38 -37 -66 -41 -102 -5 -53 -14 -60 -44 -33
-34 31 -21 85 44 181 33 47 38 49 61 24z m-176 -8 c3 -9 0 -26 -8 -38 -7 -11
-23 -41 -36 -65 -21 -40 -21 -46 -8 -78 25 -58 5 -69 -43 -25 -29 27 -30 31
-21 71 12 53 73 151 94 151 9 0 18 -7 22 -16z m-211 -65 c-26 -45 -35 -112
-16 -124 6 -3 10 -15 10 -26 0 -32 -36 -23 -60 16 -25 40 -22 72 16 147 26 50
42 62 62 44 10 -10 8 -21 -12 -57z m-167 43 c7 -13 2 -42 -20 -106 -16 -48
-29 -93 -29 -101 0 -21 -24 -19 -44 4 -16 17 -14 24 21 120 37 100 53 118 72
83z m-186 -44 c15 -24 -45 -162 -72 -166 -28 -4 -27 8 12 105 32 82 41 92 60
61z m4198 -69 c11 -6 34 -31 50 -57 32 -51 38 -103 15 -155 -17 -41 -79 -100
-100 -95 -13 2 -10 12 16 52 24 36 33 63 36 106 4 57 3 59 -37 98 -22 22 -41
45 -41 51 0 14 35 14 61 0z m-3361 -23 c0 -14 -4 -27 -9 -31 -12 -7 -25 31
-16 45 11 18 25 10 25 -14z m1360 -61 c0 -8 -9 -29 -20 -47 -14 -23 -20 -51
-20 -88 0 -37 6 -65 20 -88 43 -70 4 -88 -44 -21 -42 60 -45 115 -12 184 15
30 34 62 43 70 16 17 33 12 33 -10z m155 11 c18 -13 18 -15 -13 -50 -44 -50
-47 -108 -10 -182 12 -24 18 -50 14 -60 -6 -15 -9 -15 -32 7 -70 65 -80 149
-29 248 27 54 39 60 70 37z m523 -39 c3 -21 9 -27 27 -27 37 0 39 -17 5 -37
-26 -15 -30 -23 -28 -53 3 -30 7 -35 28 -35 18 0 25 -6 25 -20 0 -16 -8 -21
-36 -23 -46 -4 -59 12 -66 82 -5 50 -8 56 -28 56 -26 0 -35 -17 -35 -69 0 -45
-19 -75 -46 -69 -15 3 -19 11 -16 43 1 22 5 50 7 63 8 33 -20 28 -49 -10 -13
-18 -35 -63 -47 -100 -24 -69 -38 -83 -70 -73 -25 8 -24 27 1 50 11 10 20 26
20 36 0 25 -47 129 -58 129 -5 0 -19 -11 -31 -24 l-22 -24 25 -6 c22 -5 26
-12 26 -45 0 -21 -6 -43 -12 -48 -49 -38 -127 -6 -86 35 9 9 16 8 30 -5 33
-30 29 -7 -7 38 -58 73 -47 88 63 94 l64 4 14 -36 15 -36 17 24 c29 43 44 48
128 49 81 0 82 0 89 27 12 49 48 56 53 10z m1240 6 c-2 -24 -8 -29 -36 -31
l-34 -3 4 -57 c3 -55 2 -57 -22 -57 -24 0 -25 2 -28 82 l-3 82 43 4 c24 2 51
4 61 5 14 2 18 -4 15 -25z m-318 -11 c0 -25 -5 -30 -37 -38 l-38 -9 -3 -62
c-2 -46 -7 -63 -17 -63 -24 0 -35 36 -35 116 l0 77 39 -7 c23 -3 42 -2 46 4 3
5 15 10 26 10 14 0 19 -7 19 -28z m151 2 c35 -37 33 -98 -4 -130 -61 -53 -127
-19 -127 65 0 42 4 53 26 70 36 28 75 27 105 -5z m-293 -11 c3 -18 -1 -23 -20
-23 -37 0 -68 -27 -68 -60 0 -16 -4 -40 -10 -55 -8 -22 -13 -24 -29 -15 -17 9
-19 20 -18 91 l2 81 42 -6 c25 -3 45 -1 49 5 11 19 49 5 52 -18z m-1769 -18
c36 -42 46 -72 37 -123 -9 -61 -63 -119 -88 -94 -9 9 -7 22 11 58 27 53 24 89
-14 145 -13 20 -21 40 -18 43 15 15 43 3 72 -29z m1585 3 c8 -22 6 -32 -9 -48
-10 -11 -27 -20 -38 -20 -20 0 -20 9 -2 54 6 14 4 18 -6 14 -16 -5 -25 -96
-11 -110 5 -5 20 -4 36 3 32 15 41 8 26 -20 -14 -27 -78 -29 -110 -3 -18 15
-22 28 -22 66 1 27 8 59 17 73 14 21 23 24 63 21 41 -3 48 -7 56 -30z m-232
-28 c-28 -37 -28 -45 4 -82 17 -22 22 -34 15 -41 -8 -8 -20 -2 -42 19 -31 29
-31 29 -47 9 -21 -26 -45 -36 -62 -25 -9 6 -4 15 19 35 36 33 39 58 11 82 -11
10 -20 23 -20 30 0 21 38 15 54 -9 l15 -22 26 28 c20 21 29 26 38 17 8 -8 5
-19 -11 -41z m-174 27 c14 -16 25 -129 15 -144 -14 -20 -89 -19 -112 1 -29 27
-26 44 15 82 l35 34 -30 0 c-17 0 -31 4 -31 10 0 27 88 41 108 17z m-2353 -34
c-17 -71 -17 -101 4 -141 19 -37 19 -42 5 -57 -21 -21 -34 -16 -61 25 -34 49
-32 128 3 169 33 40 59 42 49 4z m-197 -20 c51 -72 49 -176 -3 -189 -39 -10
-45 3 -24 50 22 50 17 95 -12 122 -14 13 -16 20 -8 31 16 19 25 16 47 -14z
m579 11 c3 -8 -4 -25 -16 -38 -26 -28 -27 -60 -1 -93 36 -47 14 -60 -35 -21
-24 19 -27 26 -23 67 7 74 57 131 75 85z m-1114 -16 c2 -7 -4 -29 -15 -48 -27
-52 -23 -84 13 -113 33 -26 33 -41 -1 -50 -13 -3 -30 4 -50 23 -47 44 -41 118
13 178 23 25 33 28 40 10z m1757 -42 c-13 -13 -35 7 -25 24 5 8 11 8 21 -1 10
-8 12 -15 4 -23z m-1338 -21 c-1 -5 -11 -10 -21 -10 -11 0 -30 -7 -44 -14 -19
-10 -33 -11 -56 -3 -17 6 -41 9 -53 6 -61 -13 -97 -13 -108 1 -10 12 -9 16 1
20 42 14 285 15 281 0z m-602 -59 c0 -13 2 -31 5 -38 6 -15 -51 -38 -94 -38
-39 0 -21 73 22 90 43 17 67 12 67 -14z m598 -28 c3 -13 -9 -17 -70 -22 -143
-12 -261 -12 -265 1 -6 16 16 20 137 28 58 4 107 9 110 11 2 3 22 4 45 2 28
-2 41 -8 43 -20z m3826 -18 c19 -22 38 -52 42 -67 3 -16 8 -34 10 -42 15 -47
-62 -171 -107 -171 -23 0 -25 23 -3 41 24 20 54 85 54 119 0 41 -22 90 -54
119 -32 30 -33 41 -2 41 15 0 37 -15 60 -40z m-2018 -31 c3 -6 -4 -25 -17 -42
-36 -50 -39 -133 -5 -197 24 -45 25 -50 8 -50 -23 0 -67 46 -81 83 -18 48 -12
92 21 156 30 59 57 77 74 50z m161 -5 c4 -10 -2 -23 -14 -33 -50 -40 -58 -120
-18 -195 22 -42 23 -47 8 -53 -22 -9 -67 46 -83 102 -14 51 -7 95 26 153 19
32 31 42 50 42 14 0 27 -7 31 -16z m-2831 -31 c-2 -10 -8 -34 -12 -53 -12 -62
-80 -215 -127 -288 -40 -62 -51 -72 -74 -71 -31 1 -107 27 -82 28 9 1 28 18
42 39 48 68 115 247 104 275 -5 14 -11 14 -54 1 -26 -8 -55 -13 -63 -11 -15 3
232 95 258 96 8 1 11 -6 8 -16z m3342 -10 c2 -16 13 -25 35 -31 l31 -8 -37
-23 c-29 -17 -37 -29 -37 -51 0 -24 5 -29 28 -32 39 -4 38 -42 -1 -46 -41 -5
-67 22 -67 69 0 43 -23 71 -54 67 -19 -3 -21 -9 -21 -68 0 -60 -2 -65 -22 -68
-22 -3 -23 0 -23 57 0 45 -4 61 -14 61 -21 0 -36 -23 -65 -102 -30 -81 -65
-114 -94 -89 -20 16 -13 35 19 49 30 14 30 33 0 98 -29 62 -37 68 -71 52 -30
-14 -28 -30 6 -38 53 -13 27 -110 -30 -110 -43 0 -61 10 -61 32 0 17 5 20 30
15 17 -4 30 -4 30 -1 0 4 -13 22 -30 41 -57 64 -35 92 73 91 l67 0 11 -42 11
-41 19 37 c22 43 37 49 110 47 68 -2 99 7 99 30 0 24 10 32 35 29 12 -2 21
-12 23 -25z m1252 -8 c0 -15 -22 -25 -55 -25 -22 0 -24 -5 -27 -57 -3 -51 -6
-58 -25 -61 -20 -3 -22 1 -25 77 l-3 81 35 2 c53 2 58 3 66 11 9 9 34 -11 34
-28z m-330 -10 c0 -19 -7 -25 -34 -30 -36 -7 -46 -28 -46 -101 0 -27 -4 -34
-20 -34 -25 0 -34 47 -23 126 l8 59 43 2 c24 1 46 4 49 7 11 10 23 -5 23 -29z
m143 7 c45 -47 34 -121 -21 -140 -43 -15 -81 -4 -97 29 -23 43 -18 68 19 105
41 41 64 43 99 6z m-2060 -28 c17 -25 35 -57 39 -71 13 -47 -43 -143 -84 -143
-23 0 -23 18 2 55 29 44 26 93 -11 143 -32 43 -31 62 2 62 12 0 32 -18 52 -46z
m1775 19 c3 -19 -3 -23 -37 -29 -44 -7 -43 -6 -56 -87 -5 -32 -10 -38 -28 -35
-20 3 -22 8 -22 79 l0 77 50 10 c71 14 89 11 93 -15z m-198 -3 c35 -35 17 -76
-35 -82 -19 -2 -30 -9 -30 -18 0 -11 11 -15 47 -13 44 1 47 0 38 -18 -15 -27
-92 -27 -120 1 -42 42 -32 111 20 137 35 18 57 16 80 -7z m-2725 0 c4 -6 -5
-24 -19 -41 -33 -39 -34 -88 -2 -126 45 -55 -3 -75 -56 -23 -28 28 -30 36 -26
80 8 77 77 151 103 110z m293 2 c15 -10 82 -168 82 -194 0 -26 -36 -23 -54 5
-8 12 -22 51 -31 87 -9 35 -21 72 -26 81 -13 25 3 37 29 21z m372 -36 c-18
-48 -13 -102 12 -118 27 -18 16 -38 -22 -38 -38 0 -50 23 -50 95 0 48 4 60 27
81 31 29 48 19 33 -20z m1654 34 c25 -9 26 -14 26 -79 0 -61 -3 -72 -21 -81
-31 -17 -47 -6 -41 26 3 19 1 25 -7 20 -6 -4 -11 -16 -11 -27 0 -31 -33 -20
-45 15 -9 26 -6 31 23 55 39 33 40 41 7 41 -15 0 -25 6 -25 14 0 23 52 32 94
16z m120 -12 l16 -23 16 23 c16 21 54 31 54 13 0 -4 -9 -20 -20 -34 -26 -33
-25 -43 5 -79 25 -29 25 -48 2 -48 -6 0 -22 12 -34 28 l-23 27 -24 -29 c-18
-21 -29 -26 -45 -21 -29 9 -26 20 9 47 35 25 38 48 10 73 -11 10 -20 24 -20
32 0 21 36 15 54 -9z m-2634 6 c0 -3 -7 -27 -16 -53 -14 -43 -14 -51 1 -92 26
-71 29 -89 13 -89 -20 0 -77 58 -84 87 -14 53 30 153 67 153 10 0 19 -3 19 -6z
m-175 -14 c4 -6 -5 -24 -19 -41 -32 -38 -33 -60 -1 -97 32 -38 32 -60 0 -68
-14 -4 -27 -5 -28 -3 -76 139 -76 142 -16 193 32 27 54 33 64 16z m553 -105
c-2 -12 -12 -21 -24 -23 -17 -2 -26 8 -48 53 -40 86 -34 97 24 40 33 -33 50
-57 48 -70z m-758 95 c0 -6 -7 -24 -15 -40 -14 -27 -14 -33 -1 -58 8 -16 22
-34 30 -41 22 -18 20 -44 -4 -66 -19 -17 -20 -17 -37 15 -10 18 -28 48 -40 67
-13 18 -23 38 -23 42 0 4 14 27 30 49 28 39 60 56 60 32z m1549 -23 c35 -12
61 -41 48 -53 -3 -4 -54 -7 -111 -8 -69 -1 -109 -5 -117 -13 -10 -11 0 -13 53
-13 37 0 70 -4 73 -10 9 -14 -61 -40 -107 -40 l-39 0 3 67 c3 62 5 68 28 74
40 11 132 9 169 -4z m-478 -17 c23 -13 25 -39 4 -66 -15 -18 -15 -18 -29 -1
-11 15 -14 47 -7 75 2 5 13 2 32 -8z m-1221 -39 c0 -25 -79 -40 -254 -48
l-128 -6 7 24 c4 13 8 25 9 26 2 2 74 7 162 11 87 5 169 10 182 11 15 1 22 -5
22 -18z m0 -95 c0 -19 -42 -25 -227 -33 -148 -6 -163 -5 -163 10 0 10 6 18 13
18 10 1 176 10 340 17 26 1 37 -2 37 -12z m4194 -8 c41 -37 66 -97 66 -156 0
-49 -3 -57 -44 -99 -30 -33 -48 -44 -60 -40 -15 6 -14 11 11 43 21 29 28 50
31 99 4 60 3 64 -32 102 -38 43 -44 58 -23 66 21 9 25 8 51 -15z m-2004 -43
c0 -8 -9 -32 -20 -52 -29 -54 -27 -127 5 -178 30 -49 30 -55 6 -55 -11 0 -33
17 -50 37 -53 64 -53 134 -1 216 29 46 60 62 60 32z m158 3 c16 -16 15 -28 -3
-28 -43 0 -60 -132 -25 -200 22 -43 25 -60 10 -60 -28 0 -89 102 -90 150 0 14
13 53 30 88 30 63 51 77 78 50z m520 -41 c3 -21 9 -27 27 -27 37 0 40 -18 6
-38 -25 -14 -31 -24 -31 -51 0 -30 2 -33 25 -29 21 4 25 1 25 -17 0 -24 -35
-40 -63 -29 -20 7 -37 48 -37 89 0 22 -6 37 -17 44 -17 9 -17 10 0 28 9 11 17
27 17 35 0 17 17 28 35 24 6 -1 11 -15 13 -29z m-1998 -2 c11 -13 9 -19 -8
-36 -29 -26 -28 -59 4 -120 24 -47 24 -52 9 -75 -8 -13 -19 -24 -24 -24 -14 0
-65 129 -65 164 0 36 39 106 59 106 7 0 18 -7 25 -15z m2927 -11 c9 -25 -9
-46 -42 -50 -36 -4 -45 -18 -45 -76 0 -40 -3 -48 -19 -48 -25 0 -31 19 -31 93
0 75 5 84 50 90 70 8 81 7 87 -9z m140 -6 c41 -38 25 -126 -26 -148 -54 -22
-101 16 -101 82 0 38 6 48 40 71 33 23 59 21 87 -5z m178 -3 c0 -15 -9 -21
-35 -25 -34 -5 -35 -6 -40 -60 -4 -48 -8 -55 -27 -58 -22 -3 -23 -1 -23 76 0
43 3 81 6 85 4 3 32 5 63 4 48 -2 56 -5 56 -22z m-3621 -27 c-5 -36 -1 -51 25
-91 33 -51 38 -76 19 -95 -16 -16 -28 -15 -28 2 0 7 -18 41 -40 74 -22 33 -40
69 -40 80 0 16 51 72 66 72 2 0 1 -19 -2 -42z m196 38 c0 -1 -5 -17 -11 -34
-9 -26 -7 -40 16 -90 30 -67 30 -107 2 -107 -12 0 -23 12 -31 35 -7 19 -22 51
-34 70 -28 44 -28 78 0 107 18 19 58 33 58 19z m2765 -16 c29 -32 10 -73 -35
-80 -22 -3 -35 -10 -35 -20 0 -11 11 -15 43 -13 23 1 42 -2 42 -6 0 -17 -27
-31 -61 -31 -29 0 -43 7 -63 31 -29 34 -31 43 -15 86 17 51 90 70 124 33z
m193 -2 c-2 -15 -14 -24 -43 -32 -38 -11 -40 -14 -50 -66 -8 -45 -14 -55 -30
-55 -18 0 -20 6 -17 73 2 47 0 72 -7 72 -6 0 -11 4 -11 9 0 10 40 16 118 19
39 2 43 0 40 -20z m-583 -8 c20 -16 21 -123 1 -139 -7 -6 -35 -10 -62 -9 -43
3 -50 6 -59 32 -9 25 -6 31 23 57 37 33 39 39 14 39 -26 0 -34 11 -20 28 14
16 80 11 103 -8z m103 -2 c22 -21 24 -22 33 -5 6 9 19 17 29 17 24 0 26 -13 5
-30 -27 -23 -28 -49 -1 -81 42 -50 14 -70 -30 -21 l-25 27 -16 -22 c-16 -24
-47 -30 -59 -12 -3 6 9 23 27 38 l33 28 -27 32 c-15 18 -27 37 -27 42 0 17 34
9 58 -13z m-683 6 c14 -6 13 -10 -7 -32 -14 -15 -18 -26 -12 -29 6 -2 19 -10
30 -17 16 -12 17 -18 6 -55 -12 -40 -32 -56 -32 -26 0 21 -9 19 -30 -7 -14
-18 -20 -20 -32 -10 -16 12 -13 58 3 68 16 9 10 39 -11 57 -23 19 -19 34 14
47 26 11 49 12 71 4z m75 -8 c0 -8 5 -27 11 -43 l11 -28 13 32 c19 44 47 57
113 50 30 -3 55 -7 56 -9 2 -2 1 -36 -2 -75 l-4 -73 -35 0 -35 0 4 60 c7 100
-28 76 -82 -57 -21 -53 -32 -69 -50 -71 -36 -6 -47 14 -22 41 28 30 28 48 -4
113 -14 29 -23 58 -19 63 9 16 45 13 45 -3z m-1179 -16 c-4 -16 -4 -71 1 -105
2 -12 -4 -21 -14 -23 -16 -3 -18 5 -18 56 0 33 -3 68 -6 77 -5 13 -2 16 17 13
15 -2 23 -9 20 -18z m-1401 -9 c0 -10 -7 -24 -15 -31 -21 -17 -19 -69 5 -105
25 -38 25 -55 1 -55 -23 0 -65 53 -75 93 -5 20 -1 37 15 60 38 55 69 73 69 38z
m347 -35 c37 -53 42 -91 16 -104 -28 -15 -263 -26 -263 -13 0 7 27 11 74 11
75 0 139 18 148 42 9 22 -10 58 -37 70 -28 13 -30 19 -13 36 20 20 39 10 75
-42z m-169 -17 c-2 -19 -10 -25 -36 -27 -41 -4 -68 14 -51 34 14 17 39 18 39
3 0 -14 25 -6 26 9 3 24 4 26 15 15 6 -6 9 -21 7 -34z m1082 11 c0 -5 -2 -10
-4 -10 -3 0 -8 5 -11 10 -3 6 -1 10 4 10 6 0 11 -4 11 -10z m-1420 -18 c0 -15
-13 -20 -73 -30 -40 -6 -80 -14 -88 -17 -10 -4 -20 3 -27 20 -9 20 -9 27 1 30
24 8 63 12 125 14 54 1 62 -1 62 -17z m-461 -88 c168 -42 318 -168 403 -339
57 -113 93 -223 167 -505 76 -290 97 -390 135 -615 42 -255 49 -342 43 -589
-7 -314 -35 -462 -114 -605 -37 -67 -98 -141 -116 -141 -15 0 -1 83 22 121 33
57 70 187 93 329 28 176 30 500 4 695 -35 257 -101 553 -165 741 -22 63 -50
160 -61 216 -23 108 -38 152 -90 260 -29 60 -37 69 -77 84 -47 18 -49 24 -28
91 6 18 1 25 -26 38 -19 8 -65 38 -103 65 -86 62 -156 89 -251 97 -79 6 -218
-10 -274 -33 -44 -18 -47 -18 -26 6 31 34 109 79 165 95 66 18 201 13 299 -11z
m459 -6 c5 -25 -66 -36 -137 -22 -50 10 -36 21 42 32 85 11 91 10 95 -10z
m4382 -38 c63 -67 79 -153 43 -225 -27 -51 -56 -77 -82 -73 -19 3 -19 5 9 47
25 37 30 54 30 106 0 58 -2 65 -40 108 -37 41 -39 47 -23 56 27 15 32 14 63
-19z m-2013 -16 c3 -9 -3 -32 -15 -52 -19 -34 -26 -73 -23 -128 1 -12 12 -38
26 -58 31 -46 31 -58 3 -54 -14 2 -36 22 -57 53 -29 44 -32 56 -28 97 5 43 35
114 59 146 14 16 27 15 35 -4z m159 2 c18 -14 18 -15 -10 -45 -40 -42 -47
-119 -17 -179 26 -51 27 -72 2 -72 -23 0 -81 108 -81 149 0 26 41 123 62 148
13 16 20 16 44 -1z m-490 -33 c14 -16 34 -47 45 -71 25 -52 16 -89 -33 -139
-57 -59 -79 -34 -31 37 24 37 25 44 14 80 -6 21 -23 53 -37 69 -43 51 -3 73
42 24z m-253 -29 c47 -67 34 -157 -29 -198 -42 -28 -50 -7 -20 50 32 61 32 79
1 138 -30 57 -30 58 -3 54 12 -2 35 -21 51 -44z m1267 12 c0 -18 6 -25 22 -28
32 -4 35 -34 4 -42 -28 -7 -41 -35 -31 -67 6 -16 12 -19 36 -14 48 11 36 -30
-14 -48 -31 -12 -67 35 -67 86 0 38 -3 46 -22 51 -33 8 -43 -8 -43 -72 0 -55
-1 -57 -29 -60 l-29 -4 5 67 c5 56 3 66 -10 63 -23 -5 -49 -46 -73 -113 -26
-75 -34 -85 -70 -85 -36 0 -37 19 -4 50 14 13 25 27 25 32 0 5 -13 38 -30 73
-16 35 -30 67 -30 70 0 3 11 5 25 5 20 0 26 -7 35 -42 l12 -41 21 38 c28 49
69 64 133 47 49 -13 84 -1 84 29 0 21 9 29 32 29 12 0 18 -7 18 -24z m-1950
-1 c16 -19 3 -52 -52 -136 -21 -33 -38 -64 -38 -69 0 -15 -30 -12 -36 4 -6 15
91 216 105 216 5 0 14 -7 21 -15z m-196 -1 c23 -9 20 -27 -16 -97 -17 -34 -34
-75 -38 -92 -4 -23 -11 -30 -30 -30 -22 0 -25 4 -24 35 1 42 64 189 81 190 6
0 18 -3 27 -6z m-354 -18 c0 -8 -11 -34 -25 -57 -31 -55 -31 -77 0 -119 40
-54 1 -73 -47 -22 -50 51 -49 100 2 170 30 41 70 57 70 28z m190 -1 c10 -12 7
-21 -18 -52 -47 -61 -53 -76 -40 -111 15 -38 9 -45 -27 -36 -54 13 -50 70 10
161 36 55 54 64 75 38z m3234 0 c9 -26 -3 -41 -42 -51 l-37 -9 -3 -62 c-3 -55
-6 -63 -22 -63 -25 0 -32 27 -28 115 l3 70 40 6 c68 10 83 9 89 -6z m140 -6
c55 -43 22 -159 -45 -159 -43 0 -65 15 -78 52 -15 42 2 93 37 113 37 20 55 18
86 -6z m-3749 2 c3 -5 1 -12 -5 -16 -6 -3 -19 -24 -30 -46 -22 -41 -18 -60 17
-101 18 -20 9 -38 -17 -38 -27 0 -60 47 -60 87 0 32 19 81 42 111 12 14 44 16
53 3z m2983 -24 l22 -21 16 22 c32 46 47 15 17 -37 -17 -29 -17 -30 5 -54 19
-20 31 -67 17 -67 -3 0 -18 14 -34 32 -25 28 -31 30 -45 19 -9 -7 -16 -20 -16
-28 0 -23 -35 -10 -38 14 -2 14 4 27 17 35 26 16 26 32 0 69 -11 16 -17 33
-14 39 7 12 20 6 53 -23z m286 17 c9 -8 16 -28 16 -44 0 -30 -18 -40 -72 -40
-31 0 -36 -11 -13 -30 9 -8 30 -11 55 -7 44 6 56 -14 21 -33 -74 -39 -162 35
-131 110 23 56 89 79 124 44z m189 10 c12 -13 -14 -43 -39 -46 -32 -4 -41 -18
-49 -80 -5 -39 -10 -48 -26 -48 -21 0 -21 2 -23 103 l-1 68 28 -4 c15 -2 30 0
33 5 6 9 68 11 77 2z m472 -4 c11 -17 -15 -40 -46 -40 -27 0 -28 -2 -31 -57
-3 -54 -5 -58 -28 -58 -25 0 -25 1 -21 75 2 41 5 78 8 83 7 11 111 8 118 -3z
m-1641 -6 c22 -8 20 -23 -6 -43 l-22 -18 30 -14 c59 -29 31 -100 -42 -103 -33
-1 -39 2 -42 22 -4 27 22 40 43 22 23 -19 18 -5 -16 44 -34 48 -33 71 3 86 29
11 33 11 52 4z m597 -48 c20 -89 3 -115 -73 -116 -20 0 -31 8 -43 29 -18 36
-11 59 21 67 31 8 30 21 -1 36 -46 21 -30 38 36 38 l48 0 12 -54z m-1593 17
c3 -20 -2 -21 -92 -28 -117 -9 -226 1 -226 20 0 9 16 16 43 19 23 3 53 8 67
10 14 2 66 3 115 2 84 -1 90 -2 93 -23z m-1473 -23 c-13 -21 -139 -41 -163
-26 -25 15 -11 25 41 29 109 7 128 7 122 -3z m1038 -50 c-4 -22 0 -36 12 -50
24 -26 5 -26 -23 0 -26 25 -27 29 -6 58 20 30 25 28 17 -8z m426 -16 c2 -2 1
-10 -3 -19 -8 -23 -311 -18 -311 5 0 11 17 16 70 20 66 5 236 1 244 -6z
m-1469 -19 c0 -21 -33 -35 -85 -35 -61 0 -55 20 11 36 68 16 74 16 74 -1z
m4205 -101 c64 -69 72 -185 18 -252 -18 -22 -40 -38 -57 -40 -34 -4 -33 3 5
46 30 33 31 38 27 108 -3 69 -6 76 -41 112 -21 21 -34 41 -31 45 16 15 56 5
79 -19z m-1864 -11 c15 -13 14 -16 -11 -42 -41 -40 -48 -104 -21 -166 12 -26
21 -54 21 -61 0 -26 -29 -14 -57 23 -40 52 -40 136 1 216 28 57 33 59 67 30z
m-153 -7 c3 -11 -4 -25 -13 -32 -12 -9 -19 -32 -22 -77 -5 -58 -2 -70 23 -115
30 -54 29 -68 -5 -57 -35 11 -71 84 -71 145 0 66 42 163 68 158 9 -2 18 -12
20 -22z m-311 -34 c49 -65 46 -138 -10 -199 -21 -24 -51 -30 -61 -14 -4 5 6
23 20 40 38 46 35 121 -8 168 -23 25 -17 56 9 51 9 -2 32 -23 50 -46z m-1153
16 c7 -12 3 -24 -17 -48 -30 -35 -35 -83 -14 -115 50 -73 50 -73 27 -85 -18
-10 -24 -8 -36 7 -73 95 -80 123 -49 185 22 42 56 79 69 75 5 -2 14 -10 20
-19z m-174 -15 c0 -10 -9 -33 -20 -51 -25 -41 -25 -89 0 -127 42 -64 16 -94
-35 -40 -60 62 -61 103 -9 193 26 44 64 59 64 25z m2312 -10 c-2 -17 3 -22 25
-25 35 -4 34 -18 -3 -39 -22 -12 -29 -23 -29 -45 0 -27 3 -29 36 -28 24 1 43
9 62 27 14 15 33 27 42 27 29 0 15 19 -17 22 -21 2 -33 8 -33 18 0 11 14 16
57 18 l57 3 6 -33 c4 -19 5 -54 3 -78 l-3 -45 -49 -3 c-42 -3 -53 0 -68 20
-10 13 -18 17 -18 10 0 -7 -16 -20 -35 -29 -33 -16 -36 -15 -55 2 -14 13 -20
31 -20 61 0 33 -5 46 -19 54 -42 22 -50 14 -53 -52 -3 -57 -5 -63 -25 -66 -22
-3 -23 0 -23 52 0 49 -3 56 -19 56 -15 0 -27 -19 -51 -82 -38 -98 -45 -108
-76 -108 -30 0 -33 35 -4 50 27 14 24 44 -9 110 -28 57 -48 66 -80 35 -12 -12
-11 -16 12 -24 34 -13 45 -53 22 -87 -13 -21 -23 -25 -53 -22 -30 2 -38 7 -40
27 -3 21 -1 23 22 17 33 -8 32 1 -4 44 -37 42 -38 67 -5 80 19 7 88 8 146 1 4
-1 10 -17 13 -36 8 -43 21 -45 34 -6 14 41 44 54 102 46 62 -8 89 0 101 32 12
32 56 30 51 -4z m589 -24 c13 -13 19 -30 17 -47 -2 -22 -11 -30 -46 -41 -34
-10 -40 -16 -32 -26 7 -9 23 -12 47 -8 31 5 35 4 31 -13 -2 -15 -13 -20 -51
-22 -40 -3 -50 1 -72 24 -54 58 -13 150 68 153 9 1 26 -8 38 -20z m337 -10 c3
-22 -2 -26 -35 -35 l-38 -9 -3 -58 c-3 -54 -5 -58 -25 -55 -21 3 -22 9 -25 92
l-3 89 34 -6 c19 -3 40 -1 48 4 23 15 44 5 47 -22z m147 6 c75 -74 -26 -206
-103 -135 -46 43 -41 109 11 140 42 26 63 25 92 -5z m-773 -12 l28 -27 16 22
c8 12 19 22 25 22 15 0 11 -36 -6 -50 -21 -17 -19 -27 10 -62 26 -31 33 -58
14 -58 -6 0 -20 11 -31 25 -11 14 -26 25 -34 25 -8 0 -20 -11 -26 -25 -6 -14
-17 -25 -25 -25 -25 0 -25 29 1 63 l27 35 -26 30 c-45 53 -23 73 27 25z m384
16 c4 -8 9 -8 17 0 13 13 73 15 81 3 8 -13 -6 -26 -46 -44 -35 -16 -38 -21
-38 -57 0 -52 -8 -71 -30 -71 -22 0 -28 35 -22 119 3 42 9 61 18 61 7 0 16 -5
20 -11z m568 -5 c9 -25 -3 -36 -37 -32 l-32 3 -3 -62 c-3 -59 -5 -63 -27 -63
-22 0 -24 4 -27 78 -2 42 -2 80 0 85 2 4 29 7 62 7 44 0 59 -4 64 -16z m-3004
-14 c0 -14 -7 -20 -24 -20 -55 0 -55 -50 -1 -64 25 -6 35 -39 15 -51 -14 -9
-88 32 -106 60 -30 46 12 94 84 95 25 0 32 -4 32 -20z m-742 -22 c-3 -21 -10
-24 -78 -29 -123 -10 -287 -10 -315 1 -15 6 -25 16 -22 23 3 9 51 13 183 15
98 2 181 5 183 8 2 2 15 4 28 4 20 0 24 -5 21 -22z m0 -100 c3 -17 -10 -18
-165 -18 -167 0 -213 5 -213 21 0 9 139 16 290 15 73 -1 85 -4 88 -18z m-1709
-67 c29 -81 96 -168 178 -233 92 -74 125 -92 213 -118 167 -48 154 -42 160
-80 3 -19 2 -201 -2 -405 -8 -386 -4 -444 32 -514 11 -22 20 -43 20 -46 0 -3
-22 6 -50 20 -48 24 -149 106 -411 331 -70 60 -169 145 -222 189 l-95 80 27
12 c45 19 91 68 91 97 0 33 -56 96 -130 146 -32 22 -64 54 -78 78 l-22 41 22
6 c57 16 80 30 93 56 28 54 12 86 -64 124 -76 38 -163 148 -148 187 3 8 37 18
89 26 46 7 120 23 164 36 43 14 86 25 95 25 11 1 23 -18 38 -58z m3691 -58 c0
-7 -4 -13 -10 -13 -13 0 -36 -47 -44 -92 -5 -29 -1 -48 19 -88 21 -41 24 -55
14 -66 -23 -27 -43 -15 -68 41 -31 72 -26 130 19 208 31 56 33 57 51 41 11 -9
19 -23 19 -31z m1834 41 c8 -3 29 -28 47 -55 37 -58 43 -131 14 -176 -26 -41
-67 -83 -81 -83 -23 0 -26 21 -6 43 32 35 42 63 42 112 0 52 -16 89 -54 124
-14 13 -23 28 -20 32 6 10 35 12 58 3z m-1990 -28 c9 -13 7 -20 -6 -30 -42
-31 -51 -139 -18 -194 25 -41 25 -62 0 -62 -12 0 -30 16 -47 42 -40 60 -38
132 7 211 33 59 45 65 64 33z m-325 -23 c39 -47 55 -95 47 -138 -9 -46 -51
-95 -82 -95 -30 0 -30 2 2 50 33 49 29 103 -11 156 -22 28 -24 38 -15 49 18
22 25 19 59 -22z m989 -1 c7 -5 10 -16 7 -24 -5 -12 2 -18 25 -23 35 -8 36
-28 1 -33 -25 -4 -45 -44 -36 -73 5 -14 12 -17 30 -13 29 7 40 -10 19 -30 -18
-19 -55 -21 -72 -4 -7 7 -12 33 -12 59 0 37 -5 50 -22 62 l-23 16 23 16 c12 9
22 25 22 36 0 20 16 24 38 11z m-2168 -12 c12 -7 13 -16 2 -55 -15 -56 -15
-90 -1 -116 13 -24 3 -59 -17 -59 -8 0 -23 15 -35 33 -17 28 -19 42 -13 112 3
44 8 83 11 88 6 10 35 9 53 -3z m385 -48 l-7 -27 -9 24 c-5 13 -7 33 -3 44 6
19 7 19 16 3 5 -10 7 -29 3 -44z m320 31 c-4 -16 -9 -47 -12 -70 -4 -36 -1
-46 21 -66 34 -32 33 -49 -1 -45 -34 4 -73 58 -73 102 0 33 43 106 62 106 6 0
8 -10 3 -27z m-479 4 c3 -8 0 -27 -6 -43 -14 -37 -83 -144 -92 -144 -18 0 -6
49 30 122 35 74 57 94 68 65z m2534 -17 c20 -11 33 -50 24 -74 -3 -9 -24 -18
-50 -22 -36 -5 -42 -9 -33 -20 6 -8 27 -14 45 -14 36 0 42 -8 22 -28 -24 -24
-78 -14 -109 19 -38 41 -38 81 0 120 30 30 67 37 101 19z m185 -14 c0 -10 -8
-23 -17 -27 -10 -5 -26 -13 -35 -18 -12 -5 -20 -24 -23 -57 -4 -41 -9 -49 -27
-52 -22 -3 -23 -1 -23 84 l0 87 35 -6 c19 -3 37 -1 41 4 10 17 49 6 49 -15z
m155 1 c0 -19 -9 -28 -40 -40 -39 -15 -40 -16 -40 -66 0 -35 -4 -51 -13 -51
-27 0 -37 25 -37 97 l0 74 35 -3 c19 -1 37 1 41 5 4 4 18 7 31 7 17 0 23 -6
23 -23z m149 -6 c40 -37 40 -70 0 -116 -39 -44 -71 -46 -110 -4 -42 45 -40 96
4 127 42 29 69 28 106 -7z m165 13 c24 -24 20 -32 -24 -39 l-40 -7 0 -54 c0
-51 -1 -54 -25 -54 -24 0 -25 3 -25 58 0 31 -3 67 -6 79 -6 20 -2 22 42 26 27
2 52 4 56 5 4 1 14 -5 22 -14z m-2353 -15 c24 -37 8 -44 -113 -49 -108 -5
-140 -11 -126 -26 3 -3 27 -8 54 -12 63 -9 62 -26 -3 -30 -61 -4 -76 13 -71
81 3 41 4 42 43 49 69 11 206 3 216 -13z m738 12 c22 -14 5 -41 -26 -41 l-28
0 33 -26 c37 -30 42 -64 12 -94 -22 -22 -42 -25 -71 -10 -26 15 -24 30 5 30
38 0 40 18 6 50 -39 37 -39 80 0 91 36 10 53 10 69 0z m570 -8 c5 -10 10 -45
12 -78 l4 -60 -49 -9 c-44 -8 -50 -7 -74 18 -32 31 -23 55 26 71 46 16 50 25
9 25 -30 0 -37 4 -37 19 0 23 13 29 62 30 26 1 40 -4 47 -16z m109 -5 c23 -22
24 -22 37 -4 8 11 21 16 30 13 21 -9 19 -24 -5 -37 -27 -14 -25 -32 5 -60 14
-13 25 -31 25 -41 0 -30 -27 -29 -50 4 l-23 30 -23 -26 c-22 -26 -44 -34 -57
-21 -3 4 8 23 24 44 32 40 31 59 -5 90 -9 7 -16 16 -16 21 0 17 34 9 58 -13z
m-2792 -13 c1 -18 -6 -20 -60 -22 -114 -4 -201 -11 -228 -18 -24 -6 -28 -4
-28 13 0 42 22 47 195 47 113 0 120 -1 121 -20z m126 8 c13 -11 18 -30 18 -68
0 -56 -12 -75 -48 -75 l-24 0 26 31 c22 25 24 34 15 52 -6 12 -21 30 -33 39
-18 15 -19 19 -6 28 21 14 31 12 52 -7z m2069 -21 c10 -47 14 -48 35 -5 19 37
20 38 82 41 l62 3 0 -75 c0 -73 -6 -92 -25 -78 -16 11 -34 70 -28 92 4 13 0
20 -10 20 -21 0 -30 -15 -62 -95 -32 -82 -41 -95 -67 -95 -28 0 -33 28 -9 54
26 28 27 49 1 84 -11 15 -23 42 -26 60 -6 31 -5 34 17 30 17 -2 25 -11 30 -36z
m-4445 -36 c13 -10 23 -11 31 -4 25 20 223 -98 207 -124 -7 -11 -105 -6 -136
7 -12 5 -20 2 -24 -9 -4 -11 10 -36 42 -74 27 -31 68 -82 91 -112 23 -30 62
-72 87 -93 25 -21 46 -42 46 -47 0 -6 -24 -10 -53 -10 -43 0 -62 6 -107 35
-95 61 -103 44 -34 -74 56 -98 71 -157 84 -346 6 -82 13 -158 16 -168 7 -24
-13 -47 -41 -47 -22 0 -22 -3 -27 -157 -3 -87 -2 -183 3 -213 10 -64 3 -120
-17 -120 -7 0 -27 20 -44 45 -39 57 -55 50 -44 -19 13 -76 8 -254 -8 -306 -13
-42 -16 -45 -51 -48 l-38 -3 5 88 c3 48 8 133 11 188 4 73 15 128 40 210 40
130 53 198 59 320 3 55 13 113 26 149 12 33 20 76 18 99 l-3 40 -25 -38 c-14
-21 -30 -40 -37 -42 -6 -3 -36 28 -65 66 -29 39 -56 71 -60 71 -14 0 -9 37 7
50 15 13 70 6 92 -12 38 -30 45 61 12 150 -21 56 -27 104 -45 387 -5 82 -11
115 -24 130 -37 43 -34 60 6 31z m2907 -43 c2 -10 8 -27 13 -38 7 -20 7 -20
-14 -1 -12 11 -22 27 -22 38 0 23 16 24 23 1z m-646 -7 c16 -16 -20 -21 -163
-24 -153 -3 -154 -3 -154 19 0 22 0 22 155 17 86 -3 159 -8 162 -12z m-57
-251 c0 -76 -2 -85 -19 -85 -31 0 -44 25 -37 74 6 38 37 96 52 96 2 0 4 -38 4
-85z m-955 -227 c43 -96 95 -369 95 -500 0 -92 -1 -98 -20 -98 -33 0 -76 27
-101 62 -23 31 -23 38 -23 267 1 233 7 301 25 301 5 0 16 -15 24 -32z m5047
-163 c2 -165 0 -185 -20 -237 -34 -85 -81 -139 -153 -178 l-64 -34 -1680 4
c-924 2 -1813 4 -1975 4 l-294 1 -17 189 c-10 105 -25 231 -33 282 -9 50 -16
103 -16 118 l0 26 563 1 c309 1 1262 5 2117 8 855 3 1558 4 1562 1 5 -3 9 -87
10 -185z m286 -22 c-4 -147 -7 -175 -28 -226 -40 -101 -156 -193 -233 -185
l-30 3 27 32 c35 42 74 127 86 193 5 29 10 120 10 201 l0 149 86 0 86 0 -4
-167z m-7405 13 c-2 -75 -65 -213 -226 -496 -33 -58 -120 -219 -194 -358 -73
-140 -144 -269 -157 -288 l-23 -35 -18 27 c-16 25 -16 29 0 71 20 51 164 336
249 493 32 58 101 186 153 285 53 99 104 189 114 200 9 11 32 50 50 88 35 72
54 77 52 13z m1397 -220 c100 -88 262 -220 395 -322 22 -17 102 -73 178 -124
76 -51 136 -98 134 -104 -11 -29 -149 21 -277 100 -47 29 -134 92 -195 140
-60 48 -141 112 -180 143 -90 70 -262 238 -281 273 -8 15 -14 41 -14 58 l0 31
63 -47 c34 -26 114 -93 177 -148z m711 -307 l47 -10 -9 -37 c-5 -20 -9 -40 -9
-44 0 -11 -31 3 -84 39 -26 18 -52 33 -57 33 -4 0 -13 10 -20 21 -11 21 -10
21 37 14 27 -3 70 -11 95 -16z m2009 -29 l215 0 -6 -192 c-7 -211 -19 -300
-49 -382 -34 -91 -8 -85 -426 -95 -426 -11 -971 -12 -1042 -2 l-49 6 44 93
c57 121 89 245 103 395 6 67 13 137 16 156 l6 34 486 -6 c268 -4 584 -7 702
-7z m1795 -48 c3 -75 53 -162 149 -256 66 -66 99 -90 176 -128 127 -62 355
-139 574 -194 202 -51 271 -79 327 -135 55 -55 73 -95 73 -159 -1 -76 -37
-143 -126 -230 -147 -146 -372 -269 -758 -414 -124 -46 -272 -104 -330 -129
-150 -64 -314 -125 -395 -146 -98 -26 -451 -129 -503 -147 -24 -8 -48 -12 -53
-9 -5 4 -9 25 -9 47 0 60 -33 119 -99 181 -53 49 -178 122 -271 157 -19 8 -38
19 -42 24 -4 6 -8 79 -8 163 0 86 -4 154 -10 158 -12 8 -854 101 -1040 115
-80 6 -212 20 -295 30 -82 11 -188 22 -235 25 -231 17 -508 48 -620 71 -68 14
-185 29 -260 34 -74 5 -207 21 -295 35 -88 14 -218 30 -290 35 -159 12 -154
11 -455 66 -396 73 -455 86 -435 97 50 28 577 26 964 -4 137 -10 152 -14 340
-77 l196 -66 130 -1 130 0 75 37 c41 21 95 49 120 63 l45 25 275 -6 c151 -3
280 -7 286 -9 6 -2 8 -22 4 -56 -8 -80 0 -110 37 -132 41 -23 200 -42 483 -56
118 -6 233 -13 255 -16 79 -10 623 -35 775 -35 85 0 342 7 570 15 954 35 986
37 1013 64 6 6 13 50 17 97 5 82 7 88 38 113 17 15 32 37 32 48 0 45 -18 48
-265 45 -128 -2 -235 0 -238 5 -3 4 -12 80 -21 168 -9 88 -23 225 -31 305 -16
155 -19 248 -8 237 3 -4 7 -28 8 -55z m-1300 -122 c301 -51 473 -90 723 -163
110 -33 143 -49 129 -64 -9 -8 -76 8 -217 52 -209 66 -468 126 -690 160 -116
18 -164 35 -99 35 18 0 88 -9 154 -20z m95 -70 c47 -12 120 -28 163 -36 82
-16 398 -103 457 -127 19 -8 57 -22 84 -32 l48 -17 -7 -67 c-9 -95 -32 -167
-63 -202 l-27 -30 -275 16 c-151 9 -378 20 -503 25 -126 4 -231 10 -234 13 -2
3 3 20 12 37 31 61 66 222 72 339 l6 114 91 -6 c50 -4 129 -16 176 -27z
m-3400 -187 c41 -33 102 -77 135 -98 109 -69 185 -118 185 -119 0 -1 -75 4
-167 11 -93 6 -227 12 -300 12 -72 1 -134 5 -137 10 -11 17 27 177 55 230 16
29 29 69 29 88 l0 35 63 -54 c34 -30 96 -81 137 -115z m4487 -106 c8 -9 40
-196 35 -202 -6 -6 -312 -7 -312 -1 0 2 6 31 14 63 8 32 17 80 21 107 l7 49
114 -5 c63 -3 117 -8 121 -11z m-1457 -242 c74 -8 191 -19 260 -25 69 -6 206
-20 305 -32 168 -19 219 -20 768 -15 l587 5 0 -32 c0 -17 -4 -36 -8 -42 -5 -7
-140 -15 -407 -23 -220 -6 -481 -17 -580 -23 -301 -20 -873 -9 -1360 27 -517
38 -531 41 -541 81 -4 14 -2 30 4 36 6 6 75 15 154 20 79 5 233 15 343 22 275
18 320 18 475 1z m-3750 -35 c36 -5 113 -27 171 -49 58 -22 166 -54 240 -70
74 -17 159 -37 189 -45 30 -8 118 -22 195 -31 323 -37 483 -58 533 -71 29 -8
72 -14 95 -14 23 0 92 -6 152 -14 61 -8 164 -20 231 -25 128 -11 184 -25 184
-46 0 -7 -18 -24 -40 -39 l-40 -26 -163 15 c-176 17 -322 39 -365 57 -15 6
-63 14 -107 18 -44 5 -132 14 -195 20 -63 6 -176 20 -250 30 -122 17 -145 24
-241 69 -125 59 -354 134 -454 150 -38 6 -145 13 -237 17 -159 7 -209 16 -212
39 -2 20 208 31 314 15z m132 -184 c147 -29 343 -111 442 -186 81 -62 156
-172 171 -253 l7 -37 -49 47 c-260 251 -408 326 -696 355 -149 15 -267 1 -306
-36 -33 -30 -132 -86 -154 -86 -26 0 -20 25 13 58 58 58 26 82 -52 40 -23 -13
-74 -40 -112 -60 l-71 -38 -27 32 -26 32 63 28 c84 35 233 83 320 101 94 21
378 22 477 3z m858 -201 c91 -9 235 -29 320 -45 85 -15 209 -35 275 -44 188
-25 352 -45 455 -56 174 -19 360 -66 360 -91 0 -18 -69 -39 -127 -39 -32 0
-105 9 -162 20 -57 11 -174 27 -259 35 -85 9 -212 27 -281 40 -69 13 -205 38
-301 55 -96 16 -211 36 -255 45 -44 8 -98 14 -120 15 -32 0 -47 7 -82 42 -50
49 -54 60 -15 48 15 -5 101 -16 192 -25z m1230 15 c5 -8 128 -25 374 -50 117
-12 136 -17 115 -31 -8 -5 11 -6 46 -2 105 14 432 7 546 -11 59 -9 135 -16
170 -16 35 0 122 -5 193 -12 l128 -11 -323 -72 c-178 -39 -355 -81 -394 -93
-69 -21 -251 -64 -435 -103 -52 -11 -131 -30 -175 -44 -44 -13 -188 -51 -321
-84 -132 -33 -253 -65 -268 -71 -50 -18 -148 -11 -306 25 -85 19 -270 60 -410
91 -140 31 -258 59 -263 63 -4 4 -1 24 8 44 8 20 15 50 15 66 0 28 2 30 23 21
38 -16 287 -78 377 -94 47 -8 141 -27 210 -42 86 -18 142 -24 180 -21 65 6
205 61 238 94 18 18 34 23 75 23 67 0 159 -24 135 -35 -22 -9 -24 -35 -4 -35
42 0 179 54 216 85 58 49 90 53 325 44 84 -3 118 1 218 25 96 24 122 34 138
55 l20 26 -21 17 c-28 23 -38 22 -98 -1 -134 -53 -253 -59 -397 -20 -38 11
-115 24 -170 30 -55 5 -154 18 -220 29 -66 10 -142 21 -168 25 -27 3 -47 11
-45 16 2 5 28 27 58 49 l55 40 75 -6 c41 -3 77 -9 80 -14z m-1223 -145 c54
-13 179 -38 278 -55 99 -17 205 -37 235 -45 30 -7 118 -23 195 -34 77 -11 157
-26 179 -34 l39 -13 -103 -23 c-123 -28 -186 -25 -363 20 -66 16 -183 39 -261
49 -258 36 -304 54 -326 128 -11 40 -5 41 127 7z m2905 -157 c-2 -40 -5 -74
-7 -76 -1 -1 -22 2 -46 7 -24 6 -91 11 -149 11 -247 0 -416 -43 -558 -144 -26
-18 -57 -39 -69 -45 -24 -12 -202 -51 -323 -71 -41 -6 -208 -38 -370 -70 -389
-77 -445 -85 -498 -70 -72 19 -61 27 83 66 50 13 126 34 170 48 44 13 202 51
350 85 272 61 430 101 760 191 99 27 243 61 320 75 77 14 176 34 220 44 129
30 121 33 117 -51z m-148 -168 c37 -6 103 -22 145 -36 103 -36 308 -136 350
-172 l35 -29 -266 -7 c-265 -7 -332 -12 -523 -40 -55 -8 -156 -17 -225 -20
-69 -3 -140 -9 -159 -12 -32 -7 -33 -6 -26 17 21 66 115 165 210 220 118 69
305 101 459 79z m-2820 -95 c44 -13 160 -40 256 -60 197 -41 532 -125 600
-151 109 -40 476 -23 890 43 124 19 240 38 257 40 33 5 33 5 25 -28 -4 -19 -7
-72 -6 -119 0 -65 5 -95 21 -127 12 -24 18 -45 14 -47 -27 -17 -215 -37 -424
-46 -444 -18 -782 14 -1337 126 -317 64 -543 127 -729 204 l-44 18 49 21 c27
12 58 30 69 40 13 12 42 20 81 24 64 5 127 31 158 66 24 26 21 26 120 -4z
m3376 -299 c0 -36 -5 -60 -16 -70 -8 -9 -16 -16 -17 -16 -1 -1 -120 -5 -264
-10 -161 -6 -316 -17 -400 -30 -263 -38 -396 -49 -423 -37 -30 14 -92 104 -88
126 4 20 70 29 232 30 67 1 171 10 240 21 118 20 369 36 614 38 l122 2 0 -54z"/>
<path d="M8911 8756 c-18 -19 -26 -47 -38 -123 -16 -113 -7 -171 34 -203 22
-17 29 -18 56 -7 48 20 68 56 74 130 8 92 -11 159 -53 197 -42 36 -44 36 -73
6z"/>
<path d="M8445 8717 l-70 -12 3 -155 c2 -85 5 -172 8 -192 5 -35 8 -38 40 -38
l34 0 0 69 c0 61 2 70 20 76 27 8 58 -12 104 -68 36 -44 49 -48 104 -31 13 4
-47 98 -76 120 -13 9 -9 17 26 49 37 33 42 42 42 81 0 34 -6 51 -28 75 -25 28
-36 32 -83 35 -30 1 -85 -3 -124 -9z m143 -76 c20 -12 10 -51 -18 -72 -14 -11
-46 -22 -72 -25 l-48 -7 0 51 c0 50 1 51 33 55 60 7 92 7 105 -2z"/>
<path d="M8128 8666 c-57 -20 -85 -42 -116 -88 -22 -34 -28 -54 -30 -117 -3
-87 14 -127 70 -161 112 -68 268 45 268 193 0 92 -37 152 -109 176 -41 13 -37
13 -83 -3z m79 -91 c32 -22 47 -77 33 -120 -14 -41 -72 -95 -103 -95 -39 0
-77 49 -77 99 0 95 83 161 147 116z"/>
<path d="M7713 8608 l-53 -10 0 -184 0 -184 35 0 c35 0 35 0 35 46 0 101 48
115 107 29 32 -45 43 -54 68 -54 59 -1 61 11 16 78 l-42 62 29 34 c52 59 51
119 -4 170 -22 21 -36 25 -83 24 -31 -1 -80 -6 -108 -11z m145 -80 c34 -34 -2
-75 -77 -87 l-51 -8 0 47 c0 26 3 50 7 53 11 12 108 8 121 -5z"/>
<path d="M7383 8557 l-63 -10 0 -189 c0 -169 2 -189 16 -184 9 3 24 6 34 6 16
0 19 9 22 56 3 49 6 58 27 66 20 7 30 2 66 -34 23 -24 44 -49 46 -57 4 -11 11
-12 42 -2 20 7 37 14 37 16 0 2 -18 30 -39 62 l-40 58 23 20 c32 28 46 58 46
100 0 93 -57 118 -217 92z m145 -95 c2 -13 -4 -32 -13 -42 -18 -19 -100 -44
-116 -35 -10 7 -12 88 -2 99 4 4 34 6 68 4 54 -3 60 -5 63 -26z"/>
<path d="M7175 8524 c-38 -8 -94 -19 -122 -25 l-53 -10 0 -183 0 -183 93 13
c50 8 111 16 135 19 40 6 42 8 42 41 0 33 -2 35 -27 30 -16 -3 -61 -8 -100
-11 l-73 -7 0 40 0 40 81 12 80 13 -3 31 -3 31 -60 -3 c-33 -2 -68 -6 -77 -8
-15 -4 -18 1 -18 29 0 41 2 42 109 57 45 7 83 15 85 19 6 9 -5 71 -13 70 -3
-1 -37 -8 -76 -15z"/>
<path d="M6725 8441 c-3 -10 -20 -39 -39 -65 l-33 -47 -37 42 c-20 24 -36 46
-36 51 0 8 -69 1 -79 -8 -5 -5 26 -52 72 -106 24 -29 37 -53 34 -63 -4 -8 -30
-50 -58 -92 -44 -65 -54 -74 -60 -58 -4 11 -31 74 -59 140 -29 66 -54 128 -57
138 -3 9 -15 17 -27 16 -48 -1 -58 -14 -86 -105 -15 -49 -39 -118 -54 -153
-14 -36 -26 -77 -26 -93 0 -25 4 -28 30 -28 31 0 34 3 44 51 5 23 13 28 63 38
79 16 80 15 95 -25 11 -31 16 -35 38 -29 14 4 47 9 73 12 38 4 51 10 64 31 9
15 28 44 42 66 l25 38 26 -29 c14 -16 33 -39 42 -51 13 -20 21 -22 57 -16 l42
7 -17 26 c-10 14 -36 51 -59 81 l-42 56 49 84 c26 46 48 89 48 95 0 7 -15 12
-34 13 -26 1 -36 -4 -41 -17z m-371 -208 c13 -37 13 -48 4 -55 -16 -10 -68
-10 -68 0 0 16 34 102 41 102 4 0 14 -21 23 -47z"/>
<path d="M6100 8355 c-30 -7 -88 -18 -127 -25 l-73 -12 0 -35 0 -36 55 7 55 6
0 -133 c0 -74 2 -136 5 -139 3 -2 18 -3 35 0 l29 4 3 137 3 136 53 14 c51 14
52 14 52 52 0 44 -2 45 -90 24z"/>
<path d="M5805 8311 c-27 -6 -30 -10 -27 -41 1 -19 0 -68 -4 -108 l-6 -72 -68
91 c-38 51 -75 96 -82 100 -8 4 -25 2 -39 -4 l-24 -13 0 -169 0 -170 32 -3 32
-3 3 110 3 110 57 -72 c83 -106 99 -118 135 -111 20 4 33 14 37 28 3 11 6 92
6 179 0 120 -3 157 -12 156 -7 -1 -26 -4 -43 -8z"/>
<path d="M5409 8195 c-24 -41 -46 -75 -49 -75 -3 0 -21 25 -39 55 -29 48 -37
55 -65 55 -36 0 -64 -14 -47 -24 5 -4 35 -51 66 -105 49 -87 55 -103 55 -155
0 -49 3 -57 16 -52 9 3 24 6 34 6 15 0 18 11 22 74 5 76 5 77 107 248 18 31
17 33 -25 41 -31 6 -33 4 -75 -68z"/>
<path d="M5015 8191 c-43 -26 -64 -53 -71 -89 -9 -46 36 -89 105 -98 28 -3 58
-12 66 -18 42 -30 -38 -77 -96 -57 -57 20 -98 -24 -51 -55 40 -26 119 -29 162
-6 42 22 85 100 76 136 -8 33 -60 62 -124 71 -57 8 -73 24 -51 51 10 13 25 15
75 9 58 -6 63 -5 69 15 17 55 -92 83 -160 41z"/>
<path d="M4650 8110 c-19 -10 -48 -32 -64 -48 l-28 -30 -45 34 c-65 50 -113
43 -178 -26 -27 -29 -30 -37 -30 -101 0 -70 0 -71 42 -110 61 -56 101 -55 160
6 24 25 43 52 43 60 0 21 3 20 48 -25 33 -33 47 -40 78 -40 59 0 101 31 131
96 33 72 26 113 -27 166 -43 43 -75 48 -130 18z m-260 -134 c0 -3 -4 -8 -10
-11 -5 -3 -10 -1 -10 4 0 6 5 11 10 11 6 0 10 -2 10 -4z"/>
<path d="M8720 7984 c-17 -19 -2 -67 22 -72 22 -4 34 39 18 67 -13 25 -23 26
-40 5z"/>
<path d="M8247 7933 c-13 -13 -7 -32 8 -27 8 4 15 12 15 20 0 15 -12 19 -23 7z"/>
<path d="M7851 7871 c-17 -11 -7 -45 12 -39 13 5 23 48 10 48 -4 0 -14 -4 -22
-9z"/>
<path d="M8720 7646 c-12 -31 -2 -68 18 -64 23 5 36 32 28 61 -8 33 -33 35
-46 3z"/>
<path d="M8227 7614 c-4 -4 -7 -11 -7 -16 0 -13 50 -6 53 7 2 12 -36 19 -46 9z"/>
<path d="M7842 7508 c-19 -19 -14 -29 8 -16 20 13 27 28 12 28 -4 0 -13 -5
-20 -12z"/>
<path d="M8720 7314 c-17 -44 -13 -64 14 -64 28 0 41 28 32 66 -8 32 -34 31
-46 -2z"/>
<path d="M7840 7185 c-7 -9 -10 -18 -7 -22 8 -7 37 15 37 28 0 14 -16 11 -30
-6z"/>
<path d="M8220 7280 c0 -5 11 -10 24 -10 14 0 28 5 31 10 4 6 -7 10 -24 10
-17 0 -31 -4 -31 -10z"/>
<path d="M4080 6853 c-53 -48 -58 -132 -10 -183 22 -24 36 -30 70 -30 52 0 76
13 95 50 32 62 11 146 -45 175 -43 22 -76 18 -110 -12z"/>
<path d="M8714 6976 c-8 -35 -1 -60 18 -64 22 -4 41 33 34 64 -8 32 -44 32
-52 0z"/>
<path d="M8235 6959 c-4 -6 -5 -12 -3 -14 7 -7 48 7 48 16 0 13 -37 11 -45 -2z"/>
<path d="M3068 6554 c-46 -25 -72 -93 -57 -148 22 -80 117 -112 178 -61 111
94 5 278 -121 209z"/>
<path d="M8726 6648 c-20 -29 -20 -52 0 -69 14 -11 18 -10 30 6 18 24 18 59 0
74 -11 10 -17 7 -30 -11z"/>
<path d="M8237 6624 c-14 -14 -6 -24 19 -24 16 0 24 5 22 13 -5 14 -31 21 -41
11z"/>
<path d="M7820 6511 c0 -11 26 -22 34 -14 12 12 5 23 -14 23 -11 0 -20 -4 -20
-9z"/>
<path d="M8715 6301 c-8 -27 3 -61 19 -61 21 0 38 26 34 52 -4 31 -44 37 -53
9z"/>
<path d="M8230 6285 c0 -8 9 -15 20 -15 11 0 20 7 20 15 0 8 -9 15 -20 15 -11
0 -20 -7 -20 -15z"/>
<path d="M7835 6181 c-3 -5 -1 -12 5 -16 12 -7 30 2 30 16 0 12 -27 12 -35 0z"/>
<path d="M8720 5959 c-18 -33 -9 -64 20 -64 27 0 36 20 26 61 -8 29 -31 31
-46 3z"/>
<path d="M7840 5850 c0 -5 6 -10 14 -10 8 0 18 5 21 10 3 6 -3 10 -14 10 -12
0 -21 -4 -21 -10z"/>
<path d="M8716 5625 c-3 -9 -6 -30 -6 -46 0 -22 5 -29 20 -29 27 0 48 45 33
68 -14 23 -39 27 -47 7z"/>
<path d="M8227 5614 c-4 -4 -7 -11 -7 -16 0 -13 50 -6 53 7 2 12 -36 19 -46 9z"/>
<path d="M8721 5296 c-17 -21 -10 -70 11 -74 22 -4 41 33 34 64 -7 27 -27 31
-45 10z"/>
<path d="M8220 5284 c0 -10 7 -14 22 -12 32 5 35 28 4 28 -17 0 -26 -5 -26
-16z"/>
<path d="M7850 5194 c0 -8 5 -12 10 -9 6 3 10 10 10 16 0 5 -4 9 -10 9 -5 0
-10 -7 -10 -16z"/>
<path d="M8720 4961 c-15 -28 -12 -57 6 -72 14 -11 18 -10 30 6 17 23 18 57 2
73 -17 17 -26 15 -38 -7z"/>
<path d="M8235 4965 c-19 -14 -18 -14 13 -15 22 0 32 4 30 12 -6 18 -22 20
-43 3z"/>
<path d="M7857 4883 c-4 -3 -7 -11 -7 -17 0 -6 5 -5 12 2 6 6 9 14 7 17 -3 3
-9 2 -12 -2z"/>
<path d="M7850 4560 c-8 -5 -11 -12 -7 -16 4 -4 13 -2 19 4 15 15 7 24 -12 12z"/>
<path d="M8234 4629 c-14 -23 13 -30 37 -10 l24 20 -27 1 c-15 0 -30 -5 -34
-11z"/>
<path d="M8726 4635 c-29 -29 -15 -80 20 -73 24 4 31 59 11 77 -12 9 -18 8
-31 -4z"/>
<path d="M8240 4300 c-8 -15 -8 -20 3 -20 14 0 37 19 37 32 0 16 -30 7 -40
-12z"/>
<path d="M8717 4313 c-10 -9 -8 -55 2 -71 12 -20 42 -11 52 14 13 36 -31 81
-54 57z"/>
<path d="M7835 4230 c-3 -5 3 -10 14 -10 11 0 23 5 26 10 3 6 -3 10 -14 10
-11 0 -23 -4 -26 -10z"/>
<path d="M8888 2023 c7 -3 16 -2 19 1 4 3 -2 6 -13 5 -11 0 -14 -3 -6 -6z"/>
<path d="M7810 1540 c-36 -7 -158 -45 -197 -61 -13 -5 -23 -13 -23 -19 0 -16
45 -12 185 20 85 19 189 33 291 40 87 7 163 16 168 20 11 11 -376 11 -424 0z"/>
</g>
</svg>
